<svg xmlns="http://www.w3.org/2000/svg" version="1.1" xmlns:xlink="http://www.w3.org/1999/xlink" width="1000" height="1000"><svg xmlns="http://www.w3.org/2000/svg" version="1.1" xmlns:xlink="http://www.w3.org/1999/xlink" width="1000" height="1000"><style>
    #light-icon {
      display: inline;
    }
    #dark-icon {
      display: none;
    }

    @media (prefers-color-scheme: dark) {
      #light-icon {
        display: none;
      }
      #dark-icon {
        display: inline;
      }
    }
  </style><g id="SvgjsG1039"><svg xmlns="http://www.w3.org/2000/svg" version="1.1" xmlns:xlink="http://www.w3.org/1999/xlink" width="1000" height="1000"><g clip-path="url(#SvgjsClipPath1097)"><rect width="1000" height="1000" fill="#ffffff"></rect><g transform="matrix(2,0,0,2,0,0)"><svg xmlns="http://www.w3.org/2000/svg" version="1.1" xmlns:xlink="http://www.w3.org/1999/xlink" width="500" height="500"><svg xmlns="http://www.w3.org/2000/svg" viewBox="0 0 500 500">
  <path style="stroke: rgb(0, 0, 0); fill: rgb(255, 252, 252); stroke-width: 1;" d="M 137.126 184.614 C 192.451 184.614 248.219 186.483 303.231 186.483 C 306.352 186.483 354.893 184.796 355.164 185.564 C 360.316 200.275 353.921 224.107 353.921 239.576 C 353.921 296.44 341.564 417.496 263.244 427.538 C 251.362 429.054 231.552 435.165 219.876 430.486 C 170.978 410.819 152.712 310.242 148.749 265.855 C 146.091 236.061 128.593 205.797 149.18 183.449"></path>
  <g id="SvgjsG1038" fill="rgb(41,73,64)" style="" transform="matrix(0.235974, 0, 0, 0.228038, -60.72934, -80.888451)">
    <g style="transform: none;">
      <path id="SvgjsPath1037" d="M1218 2267 c-155 -65 -306 -257 -360 -454 -18 -68 -21 -114 -25 -359 -5 -277 -5 -282 16 -303 21 -21 27 -21 459 -21 388 0 440 2 461 16 l23 17 -5 291 c-5 330 -8 351 -85 506 -38 78 -61 110 -132 181 -136 137 -238 174 -352 126z m127 -61 c27 -12 35 -21 35 -40 0 -18 9 -30 29 -40 44 -23 154 -148 190 -216 33 -62 71 -177 71 -216 0 -13 8 -24 20 -27 17 -4 20 -14 20 -71 0 -52 -3 -66 -15 -66 -13 0 -15 -23 -15 -145 l0 -145 -150 0 c-127 0 -150 -2 -150 -15 0 -12 -14 -15 -70 -15 -56 0 -70 3 -70 15 0 13 -23 15 -150 15 l-150 0 0 145 c0 122 -2 145 -15 145 -12 0 -15 14 -15 65 0 58 2 65 20 65 15 0 20 7 20 28 1 125 115 329 237 423 39 31 53 48 51 63 -2 16 5 24 32 33 19 6 36 12 38 12 1 1 18 -6 37 -13z" style="fill: rgb(23, 46, 75);"></path>
      <path id="SvgjsPath1036" d="M519 2461 c-46 -15 -69 -31 -86 -64 -17 -29 -18 -77 -18 -602 0 -465 3 -576 14 -603 8 -20 60 -74 130 -135 645 -568 692 -608 726 -614 69 -11 42 -31 600 461 50 44 136 119 192 168 55 49 108 104 117 122 14 30 16 103 16 598 0 530 -1 565 -19 598 -10 19 -34 44 -52 55 -33 19 -54 20 -814 22 -429 1 -792 -2 -806 -6z m881 -96 c24 -8 66 -32 94 -53 l51 -37 235 -5 235 -5 3 -497 2 -496 -192 -169 c-105 -92 -215 -188 -244 -213 -29 -25 -100 -87 -158 -138 -58 -50 -111 -92 -118 -92 -7 1 -27 13 -44 28 -17 15 -173 152 -348 305 l-316 279 2 496 3 497 230 5 230 5 65 41 c36 22 79 46 95 52 44 15 126 14 175 -3z" style="fill: rgb(23, 46, 75);"></path>
    </g>
  </g>
  <g id="SvgjsG1035" fill="rgb(204,61,52)" style="" transform="matrix(0.235974, 0, 0, 0.228038, -60.72934, -80.888451)">
    <g style="transform: none;">
      <path id="SvgjsPath1034" d="M1164 2146 c-134 -100 -222 -261 -248 -449 l-5 -37 162 2 162 3 3 254 c1 140 -2 259 -6 263 -5 5 -35 -11 -68 -36z"></path>
      <path id="SvgjsPath1033" d="M1380 1925 l0 -266 166 2 165 2 -6 41 c-13 81 -39 162 -73 229 -40 78 -151 201 -211 235 l-41 23 0 -266z"></path>
      <path id="SvgjsPath1032" d="M910 1370 l0 -160 165 0 165 0 0 160 0 160 -165 0 -165 0 0 -160z"></path>
      <path id="SvgjsPath1031" d="M1380 1370 l0 -160 165 0 165 0 0 160 0 160 -165 0 -165 0 0 -160z"></path>
    </g>
  </g>
</svg></svg></g></g><defs><clipPath id="SvgjsClipPath1030"><rect width="1000" height="1000" x="0" y="0" rx="0" ry="0"></rect></clipPath></defs></svg></g><g id="SvgjsG1029"><svg xmlns="http://www.w3.org/2000/svg" version="1.1" xmlns:xlink="http://www.w3.org/1999/xlink" width="1000" height="1000"><g clip-path="url(#SvgjsClipPath1098)"><rect width="1000" height="1000" fill="#172e4b"></rect><g transform="matrix(2,0,0,2,0,0)"><svg xmlns="http://www.w3.org/2000/svg" version="1.1" xmlns:xlink="http://www.w3.org/1999/xlink" width="500" height="500"><svg xmlns="http://www.w3.org/2000/svg" viewBox="0 0 500 500">
  <g transform="matrix(0.062441, 0, 0, 0.193719, 1.725299, -79.833046)" style="">
    <rect x="-23.405" y="410.786" width="8047.67" height="2585.38" style="stroke: rgb(0, 0, 0); fill: rgb(23, 46, 75);"></rect>
  </g>
  <path style="stroke: rgb(0, 0, 0); fill: rgb(255, 252, 252); stroke-width: 1;" d="M 155.621 184.677 C 203.145 184.677 251.095 186.348 298.338 186.348 C 300.95 186.348 342.676 184.844 342.894 185.524 C 347.349 198.611 341.832 219.817 341.832 233.584 C 341.832 284.175 331.226 391.885 263.969 400.807 C 253.78 402.159 236.742 407.603 226.698 403.432 C 184.691 385.942 168.986 296.459 165.665 256.959 C 163.334 230.461 148.336 203.528 166.019 183.644"></path>
  <g id="SvgjsG1028" fill="rgb(41,73,64)" style="" transform="matrix(0.203939, 0, 0, 0.199438, -16.530121, -47.5411)">
    <g style="transform: none;">
      <path id="SvgjsPath1027" d="M1218 2267 c-155 -65 -306 -257 -360 -454 -18 -68 -21 -114 -25 -359 -5 -277 -5 -282 16 -303 21 -21 27 -21 459 -21 388 0 440 2 461 16 l23 17 -5 291 c-5 330 -8 351 -85 506 -38 78 -61 110 -132 181 -136 137 -238 174 -352 126z m127 -61 c27 -12 35 -21 35 -40 0 -18 9 -30 29 -40 44 -23 154 -148 190 -216 33 -62 71 -177 71 -216 0 -13 8 -24 20 -27 17 -4 20 -14 20 -71 0 -52 -3 -66 -15 -66 -13 0 -15 -23 -15 -145 l0 -145 -150 0 c-127 0 -150 -2 -150 -15 0 -12 -14 -15 -70 -15 -56 0 -70 3 -70 15 0 13 -23 15 -150 15 l-150 0 0 145 c0 122 -2 145 -15 145 -12 0 -15 14 -15 65 0 58 2 65 20 65 15 0 20 7 20 28 1 125 115 329 237 423 39 31 53 48 51 63 -2 16 5 24 32 33 19 6 36 12 38 12 1 1 18 -6 37 -13z" style="fill: rgb(255, 255, 255);"></path>
      <path id="SvgjsPath1026" d="M519 2461 c-46 -15 -69 -31 -86 -64 -17 -29 -18 -77 -18 -602 0 -465 3 -576 14 -603 8 -20 60 -74 130 -135 645 -568 692 -608 726 -614 69 -11 42 -31 600 461 50 44 136 119 192 168 55 49 108 104 117 122 14 30 16 103 16 598 0 530 -1 565 -19 598 -10 19 -34 44 -52 55 -33 19 -54 20 -814 22 -429 1 -792 -2 -806 -6z m881 -96 c24 -8 66 -32 94 -53 l51 -37 235 -5 235 -5 3 -497 2 -496 -192 -169 c-105 -92 -215 -188 -244 -213 -29 -25 -100 -87 -158 -138 -58 -50 -111 -92 -118 -92 -7 1 -27 13 -44 28 -17 15 -173 152 -348 305 l-316 279 2 496 3 497 230 5 230 5 65 41 c36 22 79 46 95 52 44 15 126 14 175 -3z" style="fill: rgb(255, 255, 255);"></path>
    </g>
  </g>
  <g id="SvgjsG1025" fill="rgb(204,61,52)" style="" transform="matrix(0.203939, 0, 0, 0.199438, -16.530121, -47.5411)">
    <g style="transform: none;">
      <path id="SvgjsPath1024" d="M1164 2146 c-134 -100 -222 -261 -248 -449 l-5 -37 162 2 162 3 3 254 c1 140 -2 259 -6 263 -5 5 -35 -11 -68 -36z"></path>
      <path id="SvgjsPath1023" d="M1380 1925 l0 -266 166 2 165 2 -6 41 c-13 81 -39 162 -73 229 -40 78 -151 201 -211 235 l-41 23 0 -266z"></path>
      <path id="SvgjsPath1022" d="M910 1370 l0 -160 165 0 165 0 0 160 0 160 -165 0 -165 0 0 -160z"></path>
      <path id="SvgjsPath1021" d="M1380 1370 l0 -160 165 0 165 0 0 160 0 160 -165 0 -165 0 0 -160z"></path>
    </g>
  </g>
</svg></svg></g></g><defs><clipPath id="SvgjsClipPath1020"><rect width="1000" height="1000" x="0" y="0" rx="0" ry="0"></rect></clipPath></defs></svg></g></svg><style>@media (prefers-color-scheme: light) { :root { filter: none; } }
@media (prefers-color-scheme: dark) { :root { filter: none; } }
</style></svg>