<svg xmlns="http://www.w3.org/2000/svg" width="2048" height="2048" viewBox="0 0 2048 2048" version="1.1"><path d="M 0 1024 L 0 2048.001 1024.250 2047.750 L 2048.500 2047.500 2048.750 1023.750 L 2049.001 0 1024.500 0 L 0 0 0 1024 M 0.498 1024.500 C 0.498 1587.700, 0.611 1817.950, 0.750 1536.167 C 0.889 1254.384, 0.889 793.584, 0.750 512.167 C 0.611 230.750, 0.498 461.300, 0.498 1024.500 M 1009.047 256.138 C 1000.710 257.520, 987.801 262.296, 980.206 266.809 C 976.446 269.042, 966.199 277.097, 957.435 284.708 C 948.671 292.320, 914.050 322.170, 880.500 351.043 C 846.950 379.916, 807.575 413.864, 793 426.485 C 778.425 439.105, 752.100 461.797, 734.500 476.912 C 716.900 492.027, 698.900 507.601, 694.500 511.520 C 690.100 515.440, 668.074 533.914, 645.554 552.574 C 623.034 571.233, 599.859 590.786, 594.054 596.025 C 588.249 601.265, 574.050 613.852, 562.500 623.997 C 524.482 657.392, 477.967 698.998, 448.500 725.964 C 432.550 740.560, 408.025 762.852, 394 775.502 C 379.975 788.151, 364.225 802.557, 359 807.515 C 348.141 817.821, 309.045 853.890, 276 884.091 C 263.625 895.401, 237.300 919.502, 217.500 937.650 C 197.700 955.797, 169.800 981.362, 155.500 994.461 C 111.450 1034.810, 109.660 1036.755, 105.374 1048.893 C 102.787 1056.222, 102.208 1068.850, 104.085 1077 C 105.565 1083.425, 110.377 1092.735, 115.032 1098.178 C 130.062 1115.753, 157.779 1120.750, 177.565 1109.454 C 184.420 1105.540, 236.337 1057.967, 325.484 973.913 C 350.725 950.113, 357.094 944.157, 420.454 885.087 C 482.630 827.121, 607.345 711.140, 668.459 654.449 C 676.136 647.327, 687.836 636.393, 694.459 630.151 C 708.415 616.997, 712.999 614.072, 726.004 610.024 C 738.194 606.230, 744.604 602.307, 758.351 590.228 C 764.483 584.840, 776.475 574.327, 785 566.865 C 828.417 528.861, 891.731 472.763, 961 410.923 C 976.675 396.929, 997.300 378.601, 1006.833 370.193 L 1024.167 354.907 1033.333 363.258 C 1038.375 367.852, 1055.994 383.510, 1072.487 398.055 C 1088.980 412.600, 1108.814 430.125, 1116.562 437 C 1124.310 443.875, 1137.793 455.800, 1146.524 463.500 C 1165.021 479.812, 1198.489 509.452, 1229 536.542 C 1278.229 580.252, 1302.787 601.396, 1307.500 604.131 C 1310.250 605.728, 1316.775 608.380, 1322 610.027 C 1335.215 614.190, 1339.928 617.196, 1353.596 630.177 C 1368.255 644.099, 1453.162 723.213, 1508.489 774.502 C 1531.033 795.401, 1556.477 819.025, 1565.032 827 C 1573.587 834.975, 1595.841 855.675, 1614.484 873 C 1633.127 890.325, 1662.801 918, 1680.424 934.500 C 1731.015 981.864, 1741.731 991.870, 1771 1019.073 C 1786.125 1033.130, 1807.899 1053.377, 1819.386 1064.066 C 1830.873 1074.755, 1845.273 1088.149, 1851.386 1093.832 C 1857.499 1099.514, 1864.768 1105.702, 1867.539 1107.583 C 1897.241 1127.741, 1939.519 1108.468, 1945.047 1072.250 C 1946.932 1059.906, 1943.733 1046.505, 1936.347 1035.797 C 1933.644 1031.878, 1926.372 1025.087, 1859.500 964.033 C 1836.400 942.943, 1809.625 918.406, 1800 909.506 C 1790.375 900.607, 1773.937 885.489, 1763.472 875.913 C 1747.202 861.024, 1714.680 831.062, 1626.553 749.770 L 1609.500 734.040 1609 571.770 L 1608.500 409.500 1605.561 403.696 C 1602.325 397.304, 1597.371 392.304, 1590.795 388.793 L 1586.500 386.500 1490 386.500 L 1393.500 386.500 1389.205 388.793 C 1382.585 392.328, 1377.335 397.621, 1374.281 403.839 L 1371.500 409.500 1371.212 467.753 L 1370.924 526.006 1361.835 518.253 C 1356.837 513.989, 1345.716 504.422, 1337.123 496.993 C 1328.531 489.564, 1314.525 477.567, 1306 470.334 C 1297.475 463.100, 1283.041 450.729, 1273.924 442.841 C 1264.808 434.953, 1249.283 421.546, 1239.424 413.047 C 1229.566 404.548, 1221.275 397.326, 1221 396.998 C 1220.725 396.670, 1210.856 388.099, 1199.068 377.951 C 1187.280 367.803, 1173.780 356.175, 1169.068 352.111 C 1164.356 348.047, 1157.821 342.422, 1154.546 339.611 C 1151.271 336.800, 1146.546 332.669, 1144.046 330.431 C 1137.992 325.011, 1091.874 285.301, 1081.616 276.675 C 1068.519 265.661, 1055.746 259.418, 1040.162 256.414 C 1032.092 254.859, 1017.541 254.730, 1009.047 256.138 M 1015.943 394.750 C 1011.790 398.462, 993.116 414.988, 974.446 431.472 C 955.776 447.957, 904.275 493.651, 860 533.015 C 748.622 632.037, 754.491 627.326, 735.936 632.602 C 730.746 634.078, 725.150 636.227, 723.500 637.378 C 718.942 640.557, 712.211 646.776, 594.036 757 C 560.719 788.075, 527.169 819.320, 519.480 826.434 C 492.560 851.339, 464.227 877.737, 432 907.940 C 393.463 944.056, 373.507 962.666, 365.985 969.500 C 362.958 972.250, 347.667 986.425, 332.006 1001 C 316.345 1015.575, 296.774 1033.763, 288.515 1041.418 C 280.257 1049.073, 269.900 1058.784, 265.500 1062.998 C 261.100 1067.211, 256.742 1070.935, 255.816 1071.273 C 254.241 1071.847, 254.159 1095.037, 254.541 1430.693 C 254.766 1628.037, 254.961 1790.063, 254.975 1790.750 C 254.995 1791.749, 409.454 1792, 1023.869 1792 L 1792.738 1792 1793.358 1788.250 C 1793.699 1786.188, 1793.950 1624.300, 1793.916 1428.500 L 1793.853 1072.500 1779.177 1059.081 C 1771.105 1051.701, 1748.134 1030.326, 1728.131 1011.581 C 1708.128 992.837, 1690.690 976.675, 1689.381 975.667 L 1687 973.833 1687 1332.417 L 1687 1691 1024 1691 L 361 1691 361.001 1336.250 L 361.002 981.500 365.841 978.782 C 368.502 977.288, 380.089 970.146, 391.590 962.912 C 403.090 955.679, 423.075 943.115, 436 934.992 C 448.925 926.869, 477.050 909.566, 498.500 896.540 L 537.500 872.857 591.620 818.179 L 645.740 763.500 663.403 775.453 L 681.066 787.407 694.283 774.438 C 701.552 767.305, 719.200 749.981, 733.500 735.941 C 827.913 643.240, 832.449 638.852, 832.797 639.894 C 833.078 640.734, 827.705 668.753, 819.065 711.500 C 816.953 721.950, 815.344 730.632, 815.490 730.794 C 815.823 731.164, 831.473 712.947, 896.493 636.500 C 925.028 602.950, 957.199 565.150, 967.983 552.500 C 983.753 534.003, 1005.157 508.710, 1021.515 489.243 L 1023.530 486.845 1052.973 521.673 C 1069.166 540.828, 1089.955 565.365, 1099.170 576.200 C 1108.385 587.035, 1132.454 615.385, 1152.657 639.200 C 1201.956 697.312, 1215.394 712.939, 1215.755 712.578 C 1215.922 712.411, 1214.454 706.475, 1212.491 699.387 C 1210.529 692.299, 1206.247 676.825, 1202.975 665 C 1199.704 653.175, 1195.508 638.100, 1193.652 631.500 C 1191.796 624.900, 1190.417 619.336, 1190.588 619.135 C 1190.758 618.934, 1197.159 623.740, 1204.813 629.816 C 1222.680 644, 1230.799 649.252, 1249.376 658.642 C 1269.527 668.827, 1272.063 670.691, 1278.163 679.801 C 1301.462 714.594, 1329.430 754.017, 1331.297 754.698 C 1332.509 755.139, 1344.242 755.397, 1357.370 755.271 L 1381.240 755.041 1393.870 763.861 C 1400.817 768.712, 1420 781.826, 1436.500 793.003 C 1453 804.181, 1475.170 819.665, 1485.766 827.413 C 1507.214 843.095, 1511.516 845.839, 1534.500 858.488 C 1556.784 870.752, 1576.407 882.718, 1588.890 891.654 C 1602.672 901.521, 1625.943 919.472, 1633.316 925.924 C 1636.506 928.716, 1639.300 931, 1639.523 931 C 1640.011 931, 1628.106 919.603, 1607 899.866 C 1598.475 891.893, 1583.832 878.200, 1574.461 869.435 C 1565.089 860.671, 1541.254 838.425, 1521.493 820 C 1482.687 783.817, 1388.194 695.545, 1355 664.468 C 1326.666 637.940, 1324.519 636.194, 1318.011 634.385 C 1305.391 630.877, 1299.628 628.613, 1294.512 625.155 C 1288.410 621.031, 1271.259 606.543, 1250.501 587.978 C 1235.613 574.663, 1138.878 489.049, 1080.549 437.563 C 1061.272 420.548, 1040.809 402.436, 1035.075 397.313 C 1029.342 392.191, 1024.390 388, 1024.072 388 C 1023.754 388, 1020.096 391.038, 1015.943 394.750 M 1285.426 843.417 C 1283.213 844.381, 1281.672 846.261, 1279.926 850.128 C 1277.637 855.196, 1277.518 856.376, 1277.816 871 C 1278.068 883.357, 1277.815 887.254, 1276.566 890.218 C 1275.705 892.263, 1275 896.425, 1275 899.468 C 1275 904.540, 1274.813 905, 1272.750 904.994 C 1271.513 904.991, 1268.867 904.535, 1266.871 903.981 C 1259.383 901.901, 1251 907.831, 1251 915.208 C 1251 917.329, 1249.648 919.549, 1246.023 923.382 C 1239.787 929.976, 1237.920 934.411, 1237.247 944.232 C 1236.954 948.505, 1236.460 952, 1236.149 952 C 1235.839 952, 1233.876 950.332, 1231.789 948.294 L 1227.994 944.588 1222.701 946.387 L 1217.409 948.186 1211.454 944.596 C 1208.179 942.621, 1204.466 941.004, 1203.202 941.003 C 1200.262 940.999, 1196 945.567, 1196 948.722 C 1196 950.118, 1194.890 952.076, 1193.391 953.326 C 1191.956 954.522, 1189.025 957.021, 1186.876 958.880 L 1182.970 962.260 1177.235 959.740 C 1169.377 956.288, 1165.729 955.211, 1156.249 953.544 C 1148.693 952.215, 1143 949.833, 1143 947.999 C 1143 947.575, 1143.650 945.977, 1144.443 944.447 C 1145.697 942.031, 1145.699 941.214, 1144.458 938.244 C 1142.321 933.132, 1137.551 927.565, 1131.710 923.369 C 1128.845 921.310, 1123.949 917.237, 1120.830 914.319 C 1114.650 908.534, 1111.649 907, 1106.512 907 C 1101.506 907, 1097.823 910.707, 1094.556 919.035 C 1092.073 925.363, 1091.876 926.643, 1092.872 929.967 C 1093.492 932.038, 1094 938.540, 1094 944.416 C 1094 956.167, 1093.200 958.722, 1088.101 963.258 C 1086.395 964.774, 1085 966.864, 1085 967.901 C 1085 971.186, 1082.360 970.967, 1078.896 967.393 C 1076.652 965.077, 1073.506 963.310, 1069.336 962.022 C 1065.918 960.966, 1061.312 959.179, 1059.100 958.051 C 1053.764 955.329, 1051.705 955.462, 1047.785 958.782 C 1045.978 960.312, 1042.849 962.782, 1040.831 964.271 C 1036.465 967.493, 1034.547 972.465, 1035.411 978.325 C 1035.749 980.621, 1035.561 984.075, 1034.993 986 C 1034.425 987.925, 1033.494 993.968, 1032.925 999.429 C 1031.604 1012.094, 1028.817 1018.169, 1020.651 1026.184 C 1013.322 1033.378, 1010.540 1034.932, 1003.696 1035.658 C 998.435 1036.215, 978.311 1042.959, 975.065 1045.252 C 974.094 1045.939, 970.491 1049.064, 967.058 1052.198 C 961.886 1056.920, 959.853 1058.096, 955.198 1059.063 C 947.626 1060.635, 946.028 1061.862, 939.902 1070.811 C 937.006 1075.040, 932.479 1081.115, 929.841 1084.311 C 927.203 1087.507, 924.553 1091.945, 923.953 1094.174 C 921.929 1101.692, 925.144 1111.925, 931.822 1119.220 C 935.926 1123.703, 938.897 1128.928, 940.949 1135.271 C 941.718 1137.647, 943.848 1140.420, 946.710 1142.771 C 950.303 1145.722, 952.274 1148.674, 956.156 1156.920 L 961.062 1167.340 955.973 1175.638 C 953.175 1180.201, 950.622 1185.637, 950.301 1187.718 C 949.980 1189.798, 949.106 1192.715, 948.359 1194.200 C 945.522 1199.838, 947.572 1206.115, 953.386 1209.591 C 955.781 1211.024, 958.186 1211.405, 963.806 1211.243 L 971.112 1211.031 973.034 1215.266 C 975.691 1221.120, 975.510 1223.359, 971.505 1234.114 C 968.623 1241.854, 968.009 1244.859, 968.005 1251.250 C 968.001 1257.117, 967.669 1259, 966.640 1259 C 964.427 1259, 955.312 1252.292, 944.227 1242.506 C 943.200 1241.599, 943.248 1240.549, 944.477 1237.065 C 946.640 1230.936, 946.390 1228.303, 943.151 1223.088 C 941.584 1220.564, 939.126 1216.424, 937.689 1213.887 C 935.262 1209.602, 933.923 1208.631, 927.598 1206.567 C 924.285 1205.485, 910.155 1205.796, 906.252 1207.035 C 904.188 1207.691, 900.219 1210.443, 897.430 1213.151 C 891.181 1219.221, 889.771 1218.905, 886.045 1210.601 C 884.540 1207.246, 882.588 1203.903, 881.709 1203.173 C 880.607 1202.259, 876.886 1201.846, 869.739 1201.846 C 864.036 1201.846, 858.907 1201.543, 858.342 1201.173 C 857.777 1200.803, 857.013 1198.955, 856.645 1197.066 C 855.045 1188.851, 848.860 1187.693, 839.405 1193.838 C 827.165 1201.792, 824.857 1205.538, 826.859 1214.208 C 828.794 1222.593, 829.465 1222.138, 816.250 1221.397 C 803.154 1220.661, 789.984 1222.007, 781.082 1224.989 C 777.357 1226.237, 771.009 1227.075, 762 1227.508 C 740.935 1228.521, 737.728 1229.962, 732.980 1240.546 C 731.445 1243.966, 729.681 1247.079, 729.061 1247.462 C 728.441 1247.846, 724.461 1248.410, 720.217 1248.716 C 715.972 1249.023, 711.270 1249.895, 709.766 1250.654 C 705.902 1252.605, 699.979 1258.761, 698.851 1261.999 C 698.326 1263.504, 695.793 1266.246, 693.223 1268.092 C 689.013 1271.115, 687.969 1271.420, 682.726 1271.160 C 676.765 1270.865, 671.554 1272.163, 660.780 1276.629 C 657.634 1277.933, 653.778 1279, 652.211 1279 C 649.629 1279, 649.057 1278.308, 646.124 1271.632 C 644.343 1267.580, 641.561 1262.996, 639.943 1261.445 C 637.668 1259.266, 637 1257.738, 637 1254.714 C 637 1243.233, 628.063 1237.270, 615.688 1240.493 C 609.979 1241.980, 609.880 1241.969, 604.215 1239.138 C 586.864 1230.469, 578.378 1229.020, 571.665 1233.581 C 567.188 1236.624, 565.434 1236.253, 564.515 1232.069 C 563.604 1227.920, 560.513 1226, 554.742 1226 C 549.615 1226, 545.643 1227.929, 543.843 1231.294 C 543.251 1232.400, 542.594 1239.554, 542.383 1247.191 C 542.041 1259.566, 542.217 1261.505, 544 1264.999 C 546.952 1270.786, 546.527 1273.095, 541.250 1279.954 C 538.638 1283.350, 535.064 1288.237, 533.308 1290.814 C 528.119 1298.431, 524.906 1301.997, 521.768 1303.620 C 518.380 1305.372, 517.432 1304.965, 518.777 1302.336 C 519.293 1301.326, 520.517 1297.479, 521.496 1293.786 C 523.121 1287.662, 523.140 1286.863, 521.714 1284.686 C 519.202 1280.852, 513.757 1278.828, 506.728 1279.114 L 500.549 1279.367 500.843 1275.294 C 501.483 1266.426, 496.235 1256.894, 488.018 1252 C 484.813 1250.092, 483.015 1247.912, 480.417 1242.789 C 476.540 1235.142, 475.038 1234.039, 468.316 1233.900 C 460.434 1233.737, 458.707 1232.889, 456.367 1228.033 C 453.703 1222.508, 451.099 1220.362, 446.018 1219.503 C 438.289 1218.197, 431.474 1222.717, 426.069 1232.732 L 423.496 1237.500 416.628 1238.179 C 412.851 1238.552, 407.567 1239.384, 404.887 1240.027 C 392.393 1243.024, 391.903 1255.087, 403.782 1267.223 C 409.078 1272.633, 409.385 1273.221, 409.385 1277.955 C 409.385 1282.039, 408.792 1283.750, 406.175 1287.231 C 404.409 1289.579, 401.164 1294.875, 398.964 1299 C 396.764 1303.125, 394.010 1308.223, 392.843 1310.330 C 390.076 1315.323, 390.016 1322.743, 392.677 1330.500 C 393.967 1334.259, 394.556 1337.920, 394.253 1340.303 C 393.610 1345.358, 396.235 1351.994, 401.101 1357.617 C 406.161 1363.463, 406.500 1365.225, 404.061 1373.008 C 402.941 1376.579, 402.020 1381.213, 402.013 1383.306 C 402.001 1386.852, 402.304 1387.247, 406.439 1389.076 C 408.880 1390.156, 413.943 1391.431, 417.689 1391.910 C 422.743 1392.557, 426.763 1393.970, 433.274 1397.391 C 438.100 1399.926, 442.760 1402, 443.629 1402 C 444.992 1402, 445.114 1403.066, 444.520 1409.769 C 443.841 1417.446, 443.873 1417.598, 447.234 1422.519 C 450.041 1426.628, 452.064 1428.203, 458.794 1431.519 C 463.282 1433.729, 468.923 1437.471, 471.332 1439.835 C 473.740 1442.198, 478.588 1445.902, 482.105 1448.065 C 489.850 1452.829, 493.526 1453.065, 504.759 1449.516 C 513.995 1446.599, 517.125 1443.801, 517.934 1437.740 C 518.444 1433.922, 518.798 1433.467, 521.500 1433.170 C 525.679 1432.710, 528.792 1429.523, 532.019 1422.399 C 534.633 1416.628, 537.046 1414.293, 539.090 1415.556 C 539.591 1415.865, 540 1416.685, 540 1417.379 C 540 1418.073, 541.518 1420.413, 543.373 1422.581 L 546.746 1426.522 546.245 1436.101 C 545.641 1447.662, 546.620 1449.730, 554.257 1453.015 C 561.544 1456.150, 570.964 1456.236, 577.251 1453.225 C 581.560 1451.161, 582.257 1451.082, 584.751 1452.380 C 586.263 1453.166, 588.517 1454.899, 589.760 1456.231 C 591.906 1458.528, 591.942 1458.810, 590.461 1461.779 C 589.076 1464.554, 589.067 1465.228, 590.375 1467.759 C 591.947 1470.798, 595.688 1472.998, 599.297 1473.003 C 600.509 1473.005, 604.828 1474.363, 608.896 1476.021 C 615.593 1478.750, 617.587 1479.074, 629.969 1479.448 C 645.217 1479.908, 647.296 1479.378, 650.498 1474.214 C 651.599 1472.438, 654.181 1468.666, 656.235 1465.832 C 658.289 1462.998, 660.229 1459.064, 660.547 1457.090 C 661.747 1449.625, 666.162 1436.848, 668.110 1435.203 C 669.219 1434.266, 672.285 1431.413, 674.924 1428.862 C 679.047 1424.876, 680.747 1423.990, 687.012 1422.565 C 694.859 1420.781, 697.684 1421.035, 703.614 1424.058 C 705.709 1425.126, 708.365 1426, 709.517 1426 C 711.902 1426, 716.547 1422.807, 720.091 1418.730 L 722.500 1415.961 726.561 1417.991 C 730.617 1420.019, 730.630 1420.019, 736.342 1418.054 C 742.659 1415.881, 742.407 1415.840, 752.990 1420.767 C 763.175 1425.510, 766.598 1425.850, 772.644 1422.722 C 775.315 1421.340, 779.300 1419.649, 781.500 1418.963 C 783.700 1418.278, 787.401 1416.417, 789.724 1414.828 C 794.632 1411.472, 805.875 1406.002, 807.868 1406.001 C 808.620 1406, 813.345 1404.143, 818.368 1401.872 C 828.943 1397.093, 832.780 1395.835, 833.456 1396.928 C 834.097 1397.966, 830.311 1401.356, 826.171 1403.449 C 824.177 1404.458, 822.273 1406.496, 821.421 1408.534 C 819.343 1413.508, 819.618 1421.828, 822.017 1426.533 C 823.479 1429.400, 823.970 1432.095, 823.803 1436.329 C 823.599 1441.498, 823.855 1442.386, 826.036 1444.062 C 827.391 1445.103, 828.907 1445.966, 829.404 1445.978 C 829.901 1445.990, 831.969 1447.800, 834 1450 C 836.790 1453.022, 838.455 1454, 840.811 1454 C 845.221 1454, 846.073 1456.244, 845.328 1465.898 C 844.613 1475.180, 845.244 1476.453, 852.086 1479.539 C 855.593 1481.120, 856.616 1482.410, 860.020 1489.542 C 864.585 1499.107, 868.598 1503.055, 877.953 1507.186 C 881.554 1508.776, 887.074 1511.420, 890.220 1513.061 C 894.895 1515.500, 897.909 1516.227, 906.720 1517.042 C 912.649 1517.590, 919.197 1518.705, 921.270 1519.520 C 923.344 1520.334, 926.352 1521, 927.955 1521 C 932.354 1521, 935.377 1522.473, 939.120 1526.440 C 942.982 1530.534, 945.007 1530.989, 968 1532.934 C 991.956 1534.960, 996.132 1535.894, 1005.008 1541.208 C 1011.831 1545.292, 1022.407 1546.658, 1031.015 1544.565 C 1036.211 1543.302, 1038.734 1543.161, 1042.119 1543.941 C 1044.529 1544.497, 1049.425 1544.965, 1053 1544.982 C 1056.763 1544.999, 1060.706 1545.641, 1062.364 1546.506 C 1063.940 1547.328, 1065.999 1548, 1066.940 1548 C 1067.881 1548, 1071.792 1549.097, 1075.631 1550.439 C 1079.470 1551.780, 1087.685 1554.046, 1093.887 1555.474 C 1103.637 1557.719, 1105.923 1557.931, 1110.766 1557.036 C 1121.093 1555.126, 1123.090 1555.526, 1130.601 1561.002 C 1136.519 1565.316, 1137.912 1565.920, 1140.731 1565.391 C 1146.579 1564.294, 1150.494 1565.774, 1156.927 1571.514 C 1160.293 1574.517, 1164.048 1577.178, 1165.273 1577.427 C 1170.751 1578.544, 1194.950 1578.977, 1199.811 1578.046 C 1204.571 1577.134, 1205.609 1577.273, 1209.811 1579.386 C 1212.390 1580.683, 1217.058 1582.481, 1220.186 1583.381 C 1224.040 1584.491, 1226.070 1585.645, 1226.489 1586.965 C 1227.345 1589.661, 1232.723 1594, 1235.209 1594 C 1238.180 1594, 1243.224 1588.125, 1245.235 1582.324 C 1246.695 1578.110, 1247.611 1577.028, 1251.020 1575.491 C 1254.819 1573.778, 1259.182 1569.555, 1263.265 1563.641 C 1264.406 1561.988, 1266.348 1560.863, 1268.765 1560.455 C 1274.782 1559.441, 1275.492 1559.126, 1278.589 1556.097 C 1280.398 1554.329, 1282.396 1550.565, 1283.760 1546.358 C 1287.925 1533.507, 1292.550 1529.265, 1300.933 1530.605 C 1304.638 1531.198, 1305.188 1530.935, 1310.223 1526.174 C 1317.237 1519.540, 1319.633 1518.699, 1330.500 1519.054 C 1344.412 1519.508, 1352.723 1519.365, 1362.246 1518.507 L 1370.992 1517.719 1375.953 1522.359 C 1379.802 1525.959, 1381.653 1526.995, 1384.207 1526.978 C 1391.548 1526.929, 1401.016 1519.754, 1402.469 1513.139 C 1402.989 1510.774, 1403.812 1509.990, 1406.315 1509.474 C 1408.067 1509.113, 1411.300 1507.621, 1413.500 1506.159 C 1417.045 1503.803, 1418.468 1503.500, 1426 1503.500 C 1433.521 1503.500, 1435.107 1503.164, 1439.764 1500.583 C 1442.660 1498.979, 1446.260 1497.669, 1447.764 1497.671 C 1449.335 1497.674, 1455.822 1500.757, 1463 1504.913 C 1478.368 1513.810, 1480.265 1514.323, 1482.418 1510.158 C 1485.319 1504.549, 1484.498 1497.577, 1479.963 1489.315 C 1475.974 1482.047, 1475.929 1481.848, 1476.213 1472.786 L 1476.500 1463.613 1481.304 1461.143 C 1487.126 1458.151, 1499.047 1447.310, 1502.128 1442.208 C 1503.359 1440.168, 1507.341 1435.334, 1510.977 1431.464 C 1514.765 1427.432, 1518.014 1422.949, 1518.586 1420.964 L 1519.584 1417.500 1535.042 1417.438 C 1551.549 1417.371, 1554.863 1416.665, 1557.493 1412.651 C 1559.128 1410.156, 1558.777 1405.836, 1556.730 1403.238 C 1556.037 1402.359, 1556.449 1400.630, 1558.083 1397.550 C 1560.358 1393.261, 1560.378 1393.023, 1558.721 1389.813 C 1557.781 1387.991, 1556.489 1385.775, 1555.849 1384.889 C 1554.909 1383.587, 1555.225 1382.572, 1557.494 1379.597 C 1561.515 1374.325, 1562.082 1367.370, 1558.803 1363.557 C 1557.248 1361.750, 1554.994 1360.522, 1552.482 1360.113 C 1549.046 1359.555, 1548.496 1359.079, 1547.896 1356.147 C 1547.521 1354.314, 1546.716 1352.316, 1546.107 1351.707 C 1544.205 1349.805, 1544.885 1346.419, 1547.945 1342.569 C 1549.565 1340.531, 1551.421 1337.256, 1552.069 1335.290 C 1553.893 1329.764, 1552.753 1319.400, 1549.648 1313.283 C 1548.192 1310.414, 1547 1307.619, 1547 1307.072 C 1547 1306.525, 1548.912 1305.593, 1551.250 1305.001 C 1558.985 1303.043, 1563.384 1300.566, 1569.824 1294.544 C 1577.212 1287.637, 1581.977 1280.004, 1581.991 1275.054 C 1581.996 1272.953, 1583.051 1270.091, 1584.692 1267.723 C 1586.627 1264.931, 1587.496 1262.244, 1587.782 1258.169 C 1588.141 1253.062, 1587.866 1252.068, 1585.003 1248.139 C 1583.256 1245.740, 1581.140 1241.468, 1580.302 1238.646 C 1578.181 1231.503, 1572.084 1225.497, 1566 1224.557 C 1560.753 1223.747, 1551.982 1221.115, 1550.411 1219.879 C 1549.682 1219.306, 1550.675 1217.605, 1553.411 1214.742 C 1555.660 1212.389, 1557.950 1208.896, 1558.500 1206.981 C 1559.446 1203.688, 1559.711 1203.517, 1563.398 1203.812 C 1570.021 1204.341, 1574.108 1206.959, 1576.943 1212.487 C 1580.662 1219.739, 1585.340 1222.175, 1594.500 1221.630 C 1613.472 1220.501, 1633.074 1216.535, 1642.754 1211.869 C 1647.360 1209.648, 1648.705 1206.936, 1647.523 1202.250 C 1646.102 1196.617, 1644.034 1182.351, 1644.017 1178.066 C 1644.008 1175.627, 1643.077 1171.724, 1641.948 1169.393 L 1639.896 1165.154 1643.420 1160.536 C 1647.497 1155.196, 1648.966 1150.507, 1649.888 1139.890 C 1650.413 1133.851, 1651.091 1131.569, 1653.176 1128.837 C 1659.925 1119.987, 1658.817 1112.395, 1650.080 1107.640 C 1644.869 1104.804, 1644.035 1102.813, 1644.011 1093.140 C 1643.998 1087.905, 1639.076 1077.997, 1634.850 1074.699 C 1633.300 1073.489, 1630.704 1071.477, 1629.079 1070.226 C 1625.647 1067.584, 1622.613 1060.214, 1620.879 1050.307 C 1619.897 1044.694, 1619.034 1042.798, 1615.960 1039.500 C 1613.778 1037.158, 1611.975 1034.049, 1611.612 1032 C 1610.962 1028.339, 1609.434 1025.626, 1604.603 1019.562 C 1601.906 1016.177, 1601.785 1015.661, 1602.853 1012.097 C 1603.484 1009.991, 1604.002 1005.620, 1604.004 1002.384 C 1604.006 998.123, 1604.600 995.535, 1606.156 993 C 1617.731 974.139, 1617.597 974.626, 1615.126 960.509 C 1610.508 934.132, 1608.078 922.768, 1606.562 920.454 C 1603.056 915.103, 1596.164 913.001, 1588.148 914.837 C 1584.402 915.694, 1582.754 915.462, 1576.303 913.167 C 1569.914 910.893, 1568.544 909.984, 1567.011 907 C 1564.410 901.937, 1561.731 899.904, 1556.828 899.275 C 1554.447 898.969, 1550.338 897.637, 1547.695 896.315 C 1542.837 893.884, 1542.010 893.761, 1531.840 893.965 C 1524.489 894.111, 1520.438 896.798, 1516.500 904.138 C 1511.429 913.589, 1513.002 913.005, 1494.153 912.438 C 1466.881 911.617, 1464.248 910.681, 1451.646 897.330 C 1444.023 889.255, 1433.671 881.367, 1428.068 879.363 C 1422.699 877.444, 1416.998 877.731, 1412.429 880.151 C 1407.574 882.722, 1405.667 882.387, 1397.647 877.551 C 1394.427 875.610, 1389.927 873.540, 1387.647 872.951 C 1385.366 872.363, 1382.686 871.644, 1381.691 871.355 C 1380.697 871.065, 1377.278 868.504, 1374.094 865.664 C 1370.766 862.696, 1366.139 859.722, 1363.213 858.671 C 1360.412 857.666, 1355.506 855.249, 1352.311 853.302 C 1347.580 850.419, 1345.013 849.602, 1338.500 848.908 C 1328.848 847.880, 1327.573 848.202, 1325.970 852.071 C 1324.779 854.947, 1322.325 857, 1320.079 857 C 1319.500 857, 1318.383 855.460, 1317.597 853.578 C 1315.963 849.667, 1313.033 847.504, 1308 846.493 C 1306.075 846.107, 1301.927 844.937, 1298.782 843.895 C 1292.097 841.680, 1289.619 841.591, 1285.426 843.417 M 945 1098.919 C 940.810 1099.460, 940.514 1099.693, 940.696 1102.308 C 940.825 1104.153, 942.752 1107.125, 946.309 1110.967 C 949.902 1114.848, 952.190 1118.390, 953.105 1121.488 C 954.474 1126.128, 955.024 1126.884, 960.190 1131.235 C 963.213 1133.780, 976.873 1160.442, 977.670 1165.351 C 978.076 1167.856, 977.029 1170.745, 972.714 1179.014 C 969.706 1184.781, 966.934 1190.513, 966.554 1191.750 C 965.914 1193.841, 966.171 1194.001, 970.183 1194.016 C 979.216 1194.051, 986.311 1201.206, 989.466 1213.460 C 991.695 1222.119, 991.415 1228.566, 988.544 1234.734 C 986.811 1238.455, 985.935 1242.501, 985.512 1248.734 C 984.523 1263.295, 984.030 1265.611, 980.927 1270.297 C 977.260 1275.833, 972.265 1278.460, 967.208 1277.511 C 961.386 1276.419, 954.408 1272.354, 947.958 1266.299 C 944.642 1263.186, 940.933 1259.978, 939.715 1259.172 C 935.869 1256.624, 928.896 1249.607, 927.420 1246.800 C 925.721 1243.569, 925.604 1239.433, 927.092 1235.166 C 928.021 1232.500, 927.856 1231.503, 925.979 1228.466 C 920.751 1220.007, 915.543 1220.187, 906.960 1229.123 L 901.316 1235 893.806 1235 C 884.783 1235, 881.763 1233.346, 875.327 1224.879 C 871.294 1219.573, 870.796 1219.251, 865.678 1218.650 C 862.711 1218.301, 857.729 1218.488, 854.608 1219.065 C 851.487 1219.642, 848.041 1219.830, 846.949 1219.484 C 845.089 1218.893, 845.005 1219.190, 845.600 1224.251 C 846.362 1230.736, 844.504 1235.149, 840.297 1236.847 C 838.593 1237.535, 828.883 1238.078, 815.445 1238.238 L 793.390 1238.500 786.695 1241.900 C 780.154 1245.221, 779.796 1245.285, 771.162 1244.672 C 766.302 1244.327, 759.287 1244.329, 755.573 1244.675 C 748.980 1245.291, 748.786 1245.390, 747.312 1248.903 C 741.590 1262.535, 740.493 1263.433, 727.209 1265.353 L 718.500 1266.612 718.828 1272.081 C 719.249 1279.109, 717.763 1280.522, 708.012 1282.366 C 701.860 1283.529, 700.319 1284.228, 698.619 1286.629 C 697.501 1288.208, 695.072 1290.963, 693.222 1292.750 C 690.190 1295.679, 689.267 1296, 683.881 1296 C 678.682 1296, 677.581 1295.651, 675.418 1293.317 L 672.932 1290.635 668.216 1292.984 C 664.612 1294.780, 661.309 1295.441, 654.211 1295.788 C 638.990 1296.532, 632.843 1292.999, 631.496 1282.731 C 630.622 1276.070, 628.773 1273.202, 624.172 1271.372 C 617.080 1268.549, 615.978 1267.659, 614.829 1263.824 C 613.741 1260.191, 613.476 1260, 609.537 1260 C 606.653 1260, 603.959 1259.091, 600.682 1257.013 C 587.775 1248.828, 582.988 1247.699, 577.413 1251.524 C 573.771 1254.024, 572.990 1254.168, 566.144 1253.609 C 559.406 1253.058, 558.851 1253.154, 559.529 1254.754 C 565.473 1268.775, 563.379 1281.396, 553.164 1293.121 C 551.066 1295.530, 547.516 1300.200, 545.275 1303.500 C 540.571 1310.428, 536.301 1314.648, 530.123 1318.474 C 524.100 1322.205, 513.672 1326, 509.445 1326 C 504.856 1326, 499.439 1323.688, 498.080 1321.150 C 496.400 1318.011, 496.844 1310.941, 499.022 1306.141 C 500.110 1303.743, 501 1301.381, 501 1300.891 C 501 1300.401, 498.386 1300, 495.191 1300 C 491.996 1300, 488.672 1299.438, 487.804 1298.750 C 485.768 1297.137, 482.274 1287.546, 481.444 1281.291 C 480.938 1277.473, 481.145 1276.125, 482.399 1275.084 C 483.279 1274.353, 484 1272.989, 484 1272.052 C 484 1270.010, 479.964 1266, 477.908 1266 C 475.278 1266, 472.192 1263.078, 469.084 1257.646 L 466.031 1252.310 458.486 1251.251 C 450.369 1250.112, 444.876 1247.018, 442.771 1242.397 C 442.170 1241.079, 441.414 1240.016, 441.089 1240.036 C 440.765 1240.056, 439.600 1241.945, 438.500 1244.234 C 435.739 1249.979, 432.753 1251.799, 423.750 1253.224 C 419.488 1253.899, 416 1254.724, 416 1255.058 C 416 1255.392, 417.785 1257.099, 419.966 1258.852 C 425.239 1263.090, 426.268 1266.950, 425.844 1280.902 L 425.500 1292.233 421.440 1295.866 C 417.801 1299.123, 414.739 1303.792, 408.805 1315.137 C 406.926 1318.729, 406.928 1318.846, 408.951 1324.602 C 410.078 1327.808, 411 1332.103, 411 1334.148 C 411 1336.869, 411.469 1337.972, 412.750 1338.265 C 413.712 1338.486, 665.551 1338.628, 972.391 1338.583 C 1528.126 1338.500, 1530.286 1338.492, 1531.391 1336.511 C 1532.001 1335.418, 1533.287 1333.445, 1534.250 1332.127 C 1536.700 1328.772, 1536.443 1325.824, 1533.124 1319.221 C 1529.141 1311.297, 1528.663 1308.188, 1530.079 1299.411 C 1530.963 1293.930, 1532.022 1290.939, 1533.845 1288.772 C 1536.316 1285.836, 1536.561 1285.771, 1543.384 1286.260 C 1552.550 1286.915, 1555.191 1285.859, 1560.418 1279.442 C 1564.438 1274.507, 1564.728 1273.763, 1564.258 1269.595 C 1563.826 1265.766, 1564.145 1264.616, 1566.375 1261.966 C 1569.407 1258.363, 1569.600 1256.845, 1567.445 1253.556 C 1566.590 1252.251, 1565.352 1249.009, 1564.695 1246.353 L 1563.500 1241.523 1558.234 1240.768 C 1555.338 1240.352, 1550.388 1238.938, 1547.234 1237.625 C 1544.080 1236.312, 1538.951 1234.508, 1535.837 1233.616 C 1528.307 1231.460, 1525 1227.658, 1525 1221.158 C 1525 1214.184, 1527.593 1210.262, 1534.969 1206.082 C 1540.782 1202.787, 1541.383 1202.123, 1542.478 1197.795 C 1543.839 1192.415, 1546.541 1189.763, 1552.928 1187.541 C 1559.403 1185.288, 1564.542 1185.634, 1574.474 1188.991 C 1584.595 1192.412, 1586.547 1193.839, 1589.192 1199.750 C 1590.238 1202.088, 1591.635 1203.996, 1592.297 1203.990 C 1592.959 1203.985, 1595.476 1202.410, 1597.891 1200.490 C 1603.144 1196.314, 1605.625 1196.083, 1607.236 1199.619 C 1608.364 1202.094, 1608.735 1202.210, 1613.965 1201.708 C 1617.009 1201.415, 1621.300 1200.568, 1623.500 1199.824 C 1628.046 1198.286, 1628.037 1198.330, 1626.525 1183.500 C 1625.869 1177.074, 1625.120 1174.638, 1622.717 1171.120 C 1620.947 1168.529, 1619.521 1164.934, 1619.226 1162.317 C 1618.795 1158.488, 1619.098 1157.507, 1621.481 1155.019 C 1622.996 1153.439, 1625.553 1151.599, 1627.165 1150.932 C 1631.184 1149.267, 1633.116 1145.184, 1632.422 1139.818 C 1632.031 1136.793, 1632.500 1133.703, 1633.988 1129.500 C 1635.155 1126.200, 1636.346 1122.781, 1636.632 1121.903 C 1636.988 1120.812, 1636.189 1119.907, 1634.110 1119.045 C 1629.605 1117.180, 1628.992 1115.965, 1628.212 1107.351 L 1627.500 1099.500 1617.500 1098.905 C 1604.595 1098.137, 950.955 1098.151, 945 1098.919" stroke="none" fill="#ffffff" fill-rule="evenodd"/><path d="M 1284.887 844.500 C 1283.123 845.459, 1281.555 847.842, 1280.064 851.829 C 1278.032 857.261, 1277.911 858.783, 1278.560 870.710 C 1279.200 882.492, 1279.060 884.345, 1277.032 890.898 C 1275.557 895.663, 1275.013 899.255, 1275.430 901.478 C 1276.266 905.937, 1275.064 906.499, 1267.931 904.985 C 1258.531 902.991, 1253.486 906.017, 1251.880 914.615 C 1251.207 918.216, 1249.864 920.508, 1246.084 924.504 C 1240.262 930.661, 1238 937.005, 1238 947.182 C 1238 950.932, 1237.641 954, 1237.203 954 C 1236.765 954, 1234.627 952.170, 1232.453 949.933 C 1229.056 946.438, 1228.078 945.952, 1225.500 946.480 C 1216.489 948.327, 1216.131 948.292, 1211.169 945.109 C 1202.771 939.719, 1198.962 941.015, 1196.031 950.258 C 1195.376 952.324, 1193.936 954.499, 1192.831 955.090 C 1191.727 955.681, 1189.114 957.709, 1187.026 959.596 L 1183.228 963.027 1178.364 960.912 C 1171.510 957.933, 1165.116 956.103, 1155.894 954.481 C 1148.200 953.129, 1142 950.130, 1142 947.761 C 1142 947.154, 1142.717 945.865, 1143.594 944.896 C 1144.670 943.707, 1144.982 942.219, 1144.554 940.317 C 1143.589 936.032, 1137.454 928.265, 1132.211 924.694 C 1129.633 922.937, 1124.795 918.927, 1121.460 915.782 C 1111.947 906.811, 1105.106 905.047, 1100.198 910.302 C 1099.069 911.511, 1096.907 915.361, 1095.395 918.858 C 1092.807 924.842, 1092.714 925.553, 1093.822 930.919 C 1095.429 938.698, 1095.326 953.283, 1093.636 957.329 C 1092.886 959.124, 1090.861 961.781, 1089.136 963.232 C 1087.411 964.683, 1086 966.489, 1086 967.244 C 1086 968, 1085.371 969.478, 1084.602 970.530 C 1083.264 972.360, 1083.008 972.262, 1078.679 968.271 C 1075.580 965.416, 1072.317 963.568, 1068.327 962.412 C 1065.122 961.483, 1060.932 959.886, 1059.015 958.862 C 1054.018 956.193, 1051.395 956.536, 1046.670 960.479 C 1044.376 962.393, 1041.164 965.042, 1039.531 966.366 C 1036.706 968.657, 1036.530 969.253, 1035.915 978.637 C 1034.794 995.744, 1032.234 1010.604, 1029.468 1016.064 C 1026.428 1022.062, 1016.156 1032.619, 1011.444 1034.588 C 1009.585 1035.364, 1006.627 1036, 1004.870 1036 C 1001.395 1036, 982.640 1042.100, 977 1045.065 C 975.075 1046.077, 970.668 1049.590, 967.207 1052.872 C 962.277 1057.547, 960.004 1058.987, 956.707 1059.523 C 948.926 1060.788, 946.185 1062.812, 939.945 1071.899 C 936.697 1076.630, 931.930 1083.096, 929.350 1086.269 C 925.378 1091.156, 924.597 1092.838, 924.239 1097.269 C 923.665 1104.364, 926.658 1111.999, 932.910 1119.394 C 935.841 1122.860, 938.744 1127.713, 940.070 1131.362 C 941.714 1135.888, 943.770 1138.970, 947.900 1143.100 C 952.114 1147.313, 954.569 1151.034, 957.819 1158.131 L 962.139 1167.563 956.569 1176.434 C 953.223 1181.764, 951 1186.431, 951 1188.126 C 951 1189.677, 950.032 1192.938, 948.850 1195.373 C 946.702 1199.794, 946.701 1199.802, 948.650 1203.558 C 951.623 1209.285, 956.031 1211.268, 964.231 1210.566 L 970.961 1209.990 973.573 1215.143 C 976.636 1221.189, 976.502 1222.971, 972.095 1234.822 C 969.545 1241.681, 969 1244.617, 969 1251.513 C 969 1256.116, 968.616 1260.119, 968.146 1260.410 C 966.970 1261.137, 959.297 1256.136, 951.234 1249.387 C 941.061 1240.872, 941.733 1241.883, 943.473 1237.719 C 945.606 1232.613, 945.371 1228.094, 942.760 1224 C 941.532 1222.075, 939.172 1218.025, 937.514 1215 C 933.823 1208.264, 930.413 1206.800, 918 1206.623 C 907.425 1206.472, 903.341 1207.875, 897.839 1213.553 C 895.469 1215.999, 892.753 1218, 891.804 1218 C 889.368 1218, 886.531 1214.640, 884.968 1209.902 C 882.689 1202.999, 880.464 1202, 867.365 1202 L 856 1202 856 1198.073 C 856 1193.094, 852.135 1189.523, 847.704 1190.409 C 844.249 1191.100, 834.806 1197.260, 830.310 1201.757 C 826.488 1205.579, 826.036 1209.505, 828.489 1217.591 C 829.308 1220.291, 829.983 1222.557, 829.989 1222.627 C 829.995 1222.697, 823.138 1222.530, 814.750 1222.256 C 799.059 1221.743, 785.134 1223.372, 779.074 1226.429 C 777.485 1227.231, 770.727 1227.940, 761.413 1228.282 C 741.284 1229.022, 737.355 1230.808, 733.425 1241 C 730.634 1248.238, 729.908 1248.702, 720.594 1249.190 C 712.891 1249.595, 711.902 1249.902, 707.212 1253.344 C 704.069 1255.651, 701.345 1258.722, 700.029 1261.440 C 698.614 1264.364, 696.180 1266.997, 692.705 1269.365 C 687.807 1272.702, 687.264 1272.847, 683.500 1271.827 C 679.418 1270.721, 674.641 1271.977, 657.969 1278.543 C 653.232 1280.408, 648.219 1280.011, 647.567 1277.720 C 645.695 1271.135, 643.035 1265.908, 639.732 1262.325 C 636.540 1258.862, 635.899 1257.538, 636.417 1255.476 C 637.358 1251.726, 633.818 1244.481, 629.818 1241.972 C 626.453 1239.860, 622.546 1239.773, 611.906 1241.574 C 609.034 1242.060, 606.925 1241.485, 601.406 1238.710 C 586.436 1231.184, 576.921 1229.786, 572.101 1234.403 C 568.101 1238.236, 565.564 1237.826, 564.154 1233.119 C 563.514 1230.984, 562.336 1228.693, 561.535 1228.029 C 559.027 1225.948, 552.621 1225.627, 549.172 1227.411 C 544.292 1229.935, 542.691 1233.099, 543.448 1238.723 C 543.802 1241.350, 543.610 1246.849, 543.022 1250.942 C 542.002 1258.044, 542.073 1258.628, 544.577 1263.747 C 548.043 1270.832, 547.390 1273.880, 540.659 1282.040 C 537.728 1285.593, 533.560 1291.200, 531.397 1294.500 C 527.676 1300.176, 517.934 1308.301, 517.262 1306.287 C 517.104 1305.813, 518.105 1302.100, 519.487 1298.037 C 520.869 1293.974, 522 1289.704, 522 1288.547 C 522 1284.918, 519.137 1282.145, 513.580 1280.394 C 509.212 1279.017, 507.411 1278.906, 503.889 1279.800 C 501.511 1280.404, 499.405 1280.738, 499.209 1280.543 C 499.014 1280.347, 499.250 1278.683, 499.735 1276.844 C 501.812 1268.957, 496.846 1258.788, 488.021 1252.859 C 483.779 1250.008, 481.990 1247.945, 479.783 1243.359 C 478.232 1240.136, 476.281 1236.989, 475.447 1236.364 C 474.613 1235.740, 470.662 1234.922, 466.667 1234.548 C 462.672 1234.173, 458.891 1233.550, 458.265 1233.163 C 457.638 1232.777, 456.205 1230.312, 455.080 1227.686 C 453.526 1224.062, 452.194 1222.561, 449.549 1221.456 C 440.059 1217.491, 432.364 1221.498, 426.189 1233.622 C 424.104 1237.716, 421.995 1238.959, 417.082 1238.986 C 410.728 1239.022, 401.722 1241.363, 398.943 1243.701 C 393.301 1248.449, 395.960 1259.260, 404.605 1266.724 L 410 1271.381 409.993 1277.441 C 409.987 1282.989, 409.586 1284.104, 405.243 1290.665 C 402.634 1294.605, 398.479 1301.355, 396.009 1305.665 C 392.049 1312.572, 391.518 1314.210, 391.528 1319.500 C 391.534 1322.853, 392.302 1327.384, 393.269 1329.770 C 394.245 1332.177, 395 1336.664, 395 1340.052 C 395 1347.435, 396.819 1351.995, 402.012 1357.629 C 406.789 1362.811, 407.153 1366.513, 403.883 1376.636 C 401.089 1385.285, 401.962 1387.376, 409.211 1389.394 C 412.120 1390.204, 416.975 1391.161, 420 1391.522 C 423.713 1391.965, 427.612 1393.415, 432 1395.984 C 435.575 1398.078, 440.187 1400.323, 442.250 1400.973 L 446 1402.155 445.407 1410.328 C 444.821 1418.402, 444.853 1418.553, 448.100 1422.895 C 450.613 1426.255, 453.165 1428.100, 458.943 1430.733 C 463.705 1432.902, 468.534 1436.111, 472 1439.408 C 479.699 1446.731, 490.107 1452.424, 494.301 1451.605 C 501.029 1450.291, 511.009 1446.781, 513.428 1444.878 C 515.827 1442.991, 518.353 1436.581, 517.771 1433.859 C 517.599 1433.053, 518.646 1432.574, 520.645 1432.545 C 524.837 1432.485, 527.548 1429.835, 531.559 1421.877 C 534.374 1416.293, 536.412 1414, 538.561 1414 C 538.780 1414, 539.856 1415.757, 540.952 1417.905 C 542.048 1420.053, 544.110 1422.728, 545.535 1423.849 C 548.123 1425.885, 548.125 1425.896, 546.995 1433.693 C 545.421 1444.560, 546.798 1448.655, 553.074 1451.771 C 555.635 1453.043, 560.528 1454.311, 564.194 1454.654 C 569.849 1455.182, 571.487 1454.924, 576.217 1452.758 C 581.023 1450.558, 582.048 1450.404, 584.596 1451.498 C 586.193 1452.184, 588.586 1453.922, 589.914 1455.361 C 592.180 1457.818, 592.248 1458.219, 591.019 1461.943 C 589.878 1465.400, 589.923 1466.233, 591.368 1468.438 C 592.973 1470.889, 594.141 1471.388, 600.500 1472.341 C 602.150 1472.588, 606.425 1474.059, 610 1475.609 C 615.924 1478.177, 617.731 1478.454, 630.395 1478.733 C 646.186 1479.082, 647.627 1478.612, 650.993 1472.013 C 652.104 1469.837, 654.351 1466.531, 655.987 1464.668 C 657.888 1462.502, 659.354 1459.337, 660.052 1455.890 C 662.606 1443.265, 666.873 1433, 669.565 1433 C 670.300 1433, 672.610 1430.955, 674.699 1428.456 C 677.627 1424.953, 679.645 1423.593, 683.499 1422.523 C 693.770 1419.673, 696.394 1419.659, 701.862 1422.430 C 704.651 1423.843, 707.969 1425, 709.235 1425 C 711.998 1425, 718.531 1420.745, 720.010 1417.981 C 721.315 1415.542, 722.944 1415.487, 726.883 1417.748 C 729.781 1419.411, 730.165 1419.411, 734.848 1417.748 C 741.744 1415.298, 743.391 1415.503, 753 1420 C 762.573 1424.481, 768.262 1425.127, 772.115 1422.170 C 773.427 1421.163, 776.635 1419.755, 779.244 1419.041 C 781.853 1418.327, 787.478 1415.535, 791.744 1412.835 C 796.010 1410.136, 801.975 1407.215, 805 1406.346 C 808.025 1405.476, 814.189 1403.041, 818.697 1400.935 C 827.592 1396.779, 834.825 1394.492, 835.845 1395.512 C 836.654 1396.320, 829.392 1402.961, 825.341 1405.116 C 821.968 1406.912, 821 1409.870, 821 1418.390 C 821 1421.675, 821.746 1424.922, 823.067 1427.387 C 824.620 1430.283, 824.973 1432.199, 824.487 1435.080 C 823.602 1440.316, 824.571 1442.732, 828.321 1444.638 C 830.069 1445.526, 832.911 1447.771, 834.635 1449.627 C 837.071 1452.248, 838.569 1453, 841.356 1453 C 844.563 1453, 845.032 1453.344, 845.787 1456.250 C 846.260 1458.069, 846.234 1461.695, 845.728 1464.485 C 844.274 1472.504, 845.869 1476.091, 852.208 1479.050 C 856.823 1481.205, 857.699 1482.113, 859.478 1486.590 C 864.029 1498.046, 870.543 1504.118, 883.410 1508.897 C 886.660 1510.104, 890.662 1512.047, 892.302 1513.215 C 894.642 1514.882, 897.678 1515.539, 906.393 1516.266 C 913.140 1516.830, 919.180 1517.924, 921.780 1519.054 C 924.134 1520.077, 926.674 1520.678, 927.425 1520.390 C 930.334 1519.274, 936.693 1522.023, 940.174 1525.901 C 944.139 1530.318, 940.898 1529.652, 974.500 1532.957 L 994.500 1534.925 1003.177 1539.414 C 1013.782 1544.901, 1023.103 1546.274, 1032.074 1543.669 C 1036.097 1542.501, 1038.535 1542.334, 1041.500 1543.023 C 1043.700 1543.534, 1048.168 1543.963, 1051.430 1543.976 C 1054.691 1543.989, 1060.091 1544.863, 1063.430 1545.917 C 1079.103 1550.868, 1086.208 1552.924, 1094.917 1555.030 C 1103.620 1557.134, 1104.925 1557.210, 1112.141 1556.038 C 1116.435 1555.341, 1121.153 1555.072, 1122.624 1555.442 C 1124.095 1555.811, 1127.946 1558.150, 1131.181 1560.639 C 1136.560 1564.778, 1137.400 1565.108, 1141.011 1564.498 C 1146.673 1563.542, 1151.284 1565.428, 1158.060 1571.475 C 1161.353 1574.413, 1165.354 1577.021, 1167.107 1577.371 C 1171.651 1578.280, 1195.728 1578.062, 1200.890 1577.065 C 1204.694 1576.330, 1206.095 1576.605, 1211.390 1579.123 C 1214.751 1580.721, 1219.222 1582.310, 1221.326 1582.654 C 1224.347 1583.148, 1225.658 1584.082, 1227.561 1587.097 C 1233.361 1596.284, 1239.870 1594.626, 1243.838 1582.952 C 1245.462 1578.174, 1246.252 1577.232, 1250.441 1575.076 C 1253.059 1573.729, 1256.618 1570.850, 1258.350 1568.679 C 1264.259 1561.274, 1265.527 1560.298, 1270.127 1559.608 C 1276.680 1558.626, 1280.215 1554.942, 1282.813 1546.391 C 1285.668 1536.989, 1289.557 1531.749, 1294.856 1530.161 C 1297.463 1529.380, 1299.636 1529.257, 1300.744 1529.827 C 1303.300 1531.141, 1304.862 1530.328, 1311.086 1524.449 C 1317.779 1518.125, 1319.379 1517.774, 1339.500 1518.202 C 1347.200 1518.366, 1357.619 1518.098, 1362.653 1517.607 C 1372.780 1516.619, 1371.394 1516.053, 1378.250 1523.977 C 1379.476 1525.394, 1381.228 1526, 1384.099 1526 C 1391.700 1526, 1398.946 1520.751, 1401.466 1513.420 C 1402.613 1510.085, 1403.413 1509.407, 1407.942 1507.931 C 1410.784 1507.004, 1414.097 1505.334, 1415.305 1504.219 C 1417.220 1502.452, 1418.416 1502.261, 1424.676 1502.726 C 1431.217 1503.211, 1432.443 1502.981, 1438.538 1500.129 C 1442.216 1498.408, 1446.458 1497, 1447.966 1497 C 1449.563 1497, 1456.096 1500.127, 1463.604 1504.485 C 1470.697 1508.601, 1477.497 1511.976, 1478.715 1511.985 C 1481.791 1512.006, 1483.200 1508.811, 1483.200 1501.811 C 1483.200 1496.648, 1482.692 1495.048, 1479.350 1489.682 C 1475.642 1483.727, 1475.488 1483.127, 1475.162 1473.363 L 1474.824 1463.227 1480.415 1460.668 C 1486.697 1457.792, 1495.338 1450.089, 1500.754 1442.539 C 1502.741 1439.768, 1507.170 1434.548, 1510.594 1430.940 C 1514.896 1426.408, 1517.172 1423.075, 1517.957 1420.159 L 1519.094 1415.937 1535.462 1416.219 C 1550.760 1416.482, 1552.015 1416.363, 1554.665 1414.401 C 1558.293 1411.715, 1558.770 1407.890, 1555.968 1403.954 L 1553.802 1400.913 1556.401 1398.504 C 1560.014 1395.156, 1559.611 1390.468, 1555.342 1386.199 C 1553.565 1384.422, 1553.646 1382.539, 1555.566 1380.945 C 1558.263 1378.707, 1560 1374.271, 1560 1369.622 C 1560 1364.449, 1557.408 1361.674, 1551.547 1360.575 C 1548.571 1360.017, 1547.985 1359.435, 1547.434 1356.497 C 1547.080 1354.613, 1546.163 1352.550, 1545.395 1351.913 C 1543.354 1350.219, 1543.679 1347.752, 1546.489 1343.612 C 1551.272 1336.563, 1552.174 1333.946, 1552.122 1327.259 C 1552.083 1322.172, 1551.409 1319.335, 1549.036 1314.263 C 1547.366 1310.695, 1546 1307.183, 1546 1306.459 C 1546 1305.657, 1548.250 1304.687, 1551.750 1303.979 C 1559.482 1302.416, 1564.299 1299.454, 1571.769 1291.668 C 1578.741 1284.401, 1582.157 1278.036, 1581.324 1273.868 C 1580.928 1271.889, 1581.521 1270.183, 1583.514 1267.571 C 1586.343 1263.861, 1587.758 1257.156, 1586.646 1252.725 C 1586.316 1251.409, 1584.685 1248.620, 1583.023 1246.528 C 1581.360 1244.437, 1580 1241.804, 1580 1240.678 C 1580 1239.552, 1579.057 1236.683, 1577.904 1234.302 C 1575.418 1229.167, 1569.741 1225.520, 1562.890 1224.657 C 1560.354 1224.338, 1555.696 1223.110, 1552.537 1221.928 L 1546.794 1219.779 1551.837 1214.970 C 1555.361 1211.608, 1557.082 1209.082, 1557.551 1206.580 C 1558.194 1203.153, 1558.400 1203.001, 1562.361 1203.022 C 1569.218 1203.058, 1574.725 1206.193, 1576.917 1211.308 C 1580.121 1218.780, 1588.015 1222.916, 1596.481 1221.556 C 1598.691 1221.200, 1603.955 1220.514, 1608.177 1220.030 C 1622.857 1218.348, 1646.126 1211.121, 1647.196 1207.911 C 1647.406 1207.283, 1646.562 1201.308, 1645.321 1194.634 C 1644.080 1187.961, 1643.050 1180.345, 1643.032 1177.710 C 1643.013 1174.919, 1642.148 1171.250, 1640.958 1168.918 L 1638.916 1164.916 1642.298 1160.965 C 1646.422 1156.147, 1648.091 1151.009, 1648.975 1140.407 C 1649.555 1133.454, 1650.108 1131.676, 1652.903 1127.784 C 1654.754 1125.207, 1656.393 1121.488, 1656.706 1119.155 C 1657.201 1115.464, 1656.917 1114.730, 1653.851 1111.778 C 1651.979 1109.975, 1649.057 1107.768, 1647.359 1106.874 C 1644.375 1105.303, 1644.256 1104.980, 1643.809 1097.257 C 1643.183 1086.440, 1639.525 1079.287, 1631.366 1072.927 C 1626.455 1069.098, 1625.149 1067.389, 1623.341 1062.427 C 1622.154 1059.167, 1620.662 1053.593, 1620.025 1050.040 C 1619.079 1044.755, 1618.154 1042.805, 1614.934 1039.313 C 1612.481 1036.652, 1611 1034.076, 1611 1032.473 C 1611 1029.295, 1608.917 1025.140, 1606 1022.500 C 1602.234 1019.091, 1600.952 1015.656, 1602.036 1011.875 C 1602.566 1010.026, 1603 1005.932, 1603 1002.777 C 1603 997.549, 1603.575 996.036, 1609.500 985.686 C 1613.457 978.773, 1615.995 973.189, 1615.987 971.415 C 1615.979 969.812, 1615.056 963.550, 1613.935 957.500 C 1612.814 951.450, 1611.204 942.675, 1610.356 938 C 1607.932 924.638, 1606.029 919.902, 1602 917.201 C 1598.727 915.008, 1597.900 914.900, 1589.255 915.546 C 1581.730 916.109, 1579.569 915.948, 1577.636 914.681 C 1576.330 913.825, 1573.740 912.734, 1571.880 912.256 C 1569.432 911.628, 1568.047 910.438, 1566.858 907.944 C 1564.495 902.987, 1561.726 900.875, 1556.286 899.880 C 1553.654 899.399, 1548.953 897.872, 1545.839 896.486 C 1540.546 894.132, 1539.644 894.028, 1531.958 894.888 C 1522.266 895.972, 1520.461 897.326, 1515.629 907.144 L 1512.500 913.500 1506 913.504 C 1502.425 913.506, 1492.975 913.127, 1485 912.663 C 1466.088 911.562, 1463.329 910.370, 1451.541 898.212 C 1439.917 886.222, 1431.326 880.351, 1423.685 879.176 C 1418.750 878.418, 1417.311 878.574, 1414.185 880.206 C 1408.538 883.153, 1404.817 882.714, 1397.226 878.206 C 1393.527 876.009, 1388.120 873.665, 1385.211 872.997 C 1381.198 872.075, 1378.620 870.592, 1374.521 866.845 C 1371.298 863.899, 1366.575 860.880, 1362.810 859.358 C 1359.339 857.956, 1354.025 855.335, 1351 853.534 C 1346.307 850.740, 1344.209 850.166, 1336.703 849.620 L 1327.906 848.981 1326.425 852.525 C 1324.127 858.026, 1317 860.023, 1317 855.166 C 1317 851.917, 1313.302 848.277, 1309.268 847.556 C 1307.195 847.186, 1303.121 846.009, 1300.212 844.941 C 1294.022 842.668, 1288.547 842.511, 1284.887 844.500 M 939.338 1101.693 C 939.764 1104.322, 941.240 1106.634, 944.463 1109.723 C 949.272 1114.330, 952.304 1119.405, 953.467 1124.794 C 953.972 1127.133, 955.307 1128.800, 958.076 1130.548 C 961.389 1132.639, 963.025 1135.133, 968.969 1147.148 C 972.816 1154.924, 976.248 1162.803, 976.595 1164.656 C 977.120 1167.455, 976.194 1170.178, 971.114 1180.763 C 967.751 1187.769, 965 1193.839, 965 1194.251 C 965 1194.663, 967.272 1195, 970.050 1195 C 972.827 1195, 976.404 1195.675, 977.998 1196.499 C 983.877 1199.539, 988.198 1207.951, 990.066 1219.990 C 991.098 1226.636, 991.018 1227.277, 988.485 1232.744 C 986.572 1236.872, 985.539 1241.328, 984.832 1248.500 C 982.912 1267.984, 983.278 1266.718, 977.980 1272.215 C 973.285 1277.086, 972.941 1277.253, 968.643 1276.769 C 960.342 1275.833, 955.494 1272.541, 934.280 1253.434 C 927.220 1247.076, 925.907 1243.535, 927.877 1236.170 C 928.997 1231.982, 928.900 1231.519, 925.924 1226.881 C 922.964 1222.268, 922.553 1222, 918.443 1222 C 912.733 1222, 909.985 1223.356, 907.260 1227.519 C 903.429 1233.371, 900.113 1234.489, 887.753 1234.089 C 884.312 1233.978, 877.815 1228.247, 874.269 1222.196 L 871.648 1217.724 859.074 1218.276 C 848.623 1218.734, 846.210 1218.567, 844.784 1217.290 C 843.184 1215.856, 843.134 1215.979, 844.034 1219.119 C 845.478 1224.154, 845.200 1231.269, 843.463 1233.749 C 840.965 1237.315, 835.154 1238.244, 820.080 1237.486 C 803.159 1236.634, 791.355 1238.058, 785.089 1241.705 C 780.842 1244.178, 780.130 1244.266, 765.881 1244.079 C 757.086 1243.964, 750.289 1244.310, 749.125 1244.933 C 748.048 1245.509, 746.385 1248.348, 745.430 1251.240 C 742.009 1261.598, 739.035 1263.601, 725.539 1264.639 L 716.812 1265.310 717.358 1268.038 C 717.658 1269.539, 718.193 1271.922, 718.547 1273.333 C 719.587 1277.476, 715.540 1280.726, 708.324 1281.543 C 701.625 1282.301, 700.924 1282.727, 695.705 1289.223 C 691.398 1294.584, 686.410 1296.675, 680.550 1295.575 C 677.893 1295.077, 676.595 1294.163, 675.752 1292.196 C 675.115 1290.713, 674.507 1289.358, 674.399 1289.185 C 674.291 1289.011, 671.470 1290.249, 668.130 1291.935 C 662.616 1294.718, 661.177 1295, 652.496 1295 C 646.438 1295, 641.673 1294.473, 639.490 1293.560 C 635.268 1291.796, 632.009 1286.719, 632.004 1281.898 C 631.999 1276.856, 628.418 1271.988, 623.500 1270.336 C 618.735 1268.735, 615 1264.829, 615 1261.444 C 615 1259.169, 614.645 1259, 609.858 1259 C 605.631 1259, 603.629 1258.320, 598.608 1255.179 C 592.180 1251.157, 585.041 1248, 582.374 1248 C 581.502 1248, 579.452 1249.125, 577.818 1250.500 C 575.457 1252.486, 573.745 1253, 569.488 1253 C 566.541 1253, 562.992 1252.567, 561.601 1252.038 C 557.893 1250.629, 557.463 1252.324, 560.020 1258.267 C 561.850 1262.523, 562.155 1264.717, 561.780 1270.956 C 561.258 1279.651, 558.518 1285.970, 552.002 1293.497 C 549.767 1296.081, 546.447 1300.513, 544.626 1303.347 C 539.870 1310.746, 533.005 1316.618, 524.186 1320.830 C 517.553 1323.997, 515.521 1324.500, 509.355 1324.500 C 503.732 1324.500, 501.762 1324.094, 500.105 1322.595 C 497.080 1319.857, 497.259 1312.134, 500.510 1305.151 C 501.879 1302.209, 503 1299.640, 503 1299.443 C 503 1299.246, 499.514 1298.953, 495.252 1298.792 L 487.505 1298.500 485.196 1292.674 C 481.897 1284.347, 481.310 1277.982, 483.531 1274.593 C 485.242 1271.982, 485.235 1271.791, 483.342 1269.256 C 482.262 1267.809, 480.056 1266.202, 478.439 1265.683 C 474.286 1264.349, 471.990 1262.126, 469.866 1257.382 C 467.413 1251.902, 466.586 1251.379, 459.064 1250.560 C 449.811 1249.552, 445.096 1246.605, 442.423 1240.159 L 441.321 1237.500 438.625 1242.786 C 435.254 1249.397, 431.888 1251.476, 422.226 1252.913 C 418.044 1253.535, 414.462 1254.205, 414.265 1254.401 C 414.069 1254.598, 415.742 1256.212, 417.984 1257.987 C 423.531 1262.380, 424.652 1265.009, 425.475 1275.556 C 426.363 1286.930, 425.157 1291.891, 420.582 1295.697 C 418.729 1297.239, 415.761 1301.198, 413.986 1304.496 C 412.211 1307.794, 409.913 1311.567, 408.879 1312.881 C 406.465 1315.950, 406.501 1320.148, 409 1327.260 C 410.100 1330.389, 411 1334.311, 411 1335.975 L 411 1339 971.500 1339 C 1479.664 1339, 1532 1338.854, 1532 1337.433 C 1532 1336.572, 1533.125 1334.392, 1534.500 1332.589 C 1537.784 1328.284, 1537.666 1326.553, 1533.500 1317.860 C 1529.579 1309.679, 1529.125 1304.875, 1531.448 1296.149 C 1533.786 1287.366, 1537.828 1284.799, 1545.900 1286.973 C 1551.072 1288.366, 1554.777 1286.653, 1560.705 1280.128 C 1564.524 1275.925, 1564.914 1275.008, 1564.955 1270.144 C 1564.990 1265.932, 1565.534 1264.155, 1567.500 1261.818 C 1570.492 1258.261, 1570.607 1256.667, 1568.122 1253.154 C 1567.089 1251.694, 1565.923 1248.582, 1565.532 1246.237 C 1564.748 1241.546, 1562.904 1240, 1558.092 1240 C 1556.420 1240, 1551.765 1238.694, 1547.746 1237.098 C 1543.728 1235.502, 1538.524 1233.680, 1536.181 1233.049 C 1533.838 1232.418, 1530.517 1230.647, 1528.800 1229.113 C 1526.106 1226.706, 1525.688 1225.674, 1525.750 1221.584 C 1525.789 1218.978, 1526.360 1215.546, 1527.017 1213.958 C 1528.116 1211.306, 1536.328 1205, 1538.683 1205 C 1540.367 1205, 1543 1201.474, 1543 1199.218 C 1543 1195.010, 1545.318 1191.991, 1550.497 1189.458 C 1558.556 1185.515, 1561.298 1185.447, 1572.123 1188.923 C 1583.221 1192.486, 1586.497 1194.703, 1588.663 1200.115 C 1590.630 1205.031, 1592.668 1205.109, 1598.704 1200.500 C 1601.225 1198.575, 1603.694 1197, 1604.190 1197 C 1604.687 1197, 1605.860 1198.386, 1606.797 1200.080 C 1608.427 1203.029, 1608.713 1203.136, 1613.500 1202.601 C 1616.250 1202.293, 1620.917 1201.323, 1623.872 1200.446 L 1629.243 1198.850 1628.604 1194.675 C 1628.252 1192.379, 1627.678 1187.125, 1627.328 1183 C 1626.798 1176.757, 1626.130 1174.664, 1623.346 1170.513 C 1620.733 1166.619, 1620 1164.497, 1620 1160.825 C 1620 1156.154, 1620.040 1156.098, 1626.020 1152.407 C 1632.533 1148.387, 1632.724 1148.007, 1633.250 1138 C 1633.476 1133.687, 1634.471 1129.590, 1636.207 1125.823 L 1638.822 1120.146 1634.886 1118.571 C 1630.209 1116.700, 1629 1114.145, 1629 1106.135 C 1629 1102.981, 1628.460 1099.860, 1627.800 1099.200 C 1626.871 1098.271, 1548.838 1098, 1282.669 1098 L 938.738 1098 939.338 1101.693" stroke="none" fill="#d7232d" fill-rule="evenodd"/><path d="M 1015.943 394.750 C 1011.790 398.462, 993.116 414.988, 974.446 431.472 C 955.776 447.957, 904.275 493.651, 860 533.015 C 748.622 632.037, 754.491 627.326, 735.936 632.602 C 730.746 634.078, 725.150 636.227, 723.500 637.378 C 718.942 640.557, 712.211 646.776, 594.036 757 C 560.719 788.075, 527.169 819.320, 519.480 826.434 C 492.125 851.741, 464.051 877.910, 431.982 907.995 C 414.096 924.773, 390.947 946.375, 380.539 956 C 370.131 965.625, 359.995 975.075, 358.014 977 C 355.467 979.474, 355.377 979.637, 357.706 977.554 L 361 974.608 361 977.804 C 361 979.562, 361.275 981, 361.611 981 C 362.590 981, 377.347 971.953, 409.500 951.639 C 448.694 926.877, 453.566 923.862, 499 896.253 L 537.500 872.857 591.620 818.179 L 645.740 763.500 663.403 775.453 L 681.066 787.407 694.283 774.438 C 701.552 767.305, 719.200 749.981, 733.500 735.941 C 827.913 643.240, 832.449 638.852, 832.797 639.894 C 833.078 640.734, 827.705 668.753, 819.065 711.500 C 816.953 721.950, 815.344 730.632, 815.490 730.794 C 815.823 731.164, 831.473 712.947, 896.493 636.500 C 925.028 602.950, 957.199 565.150, 967.983 552.500 C 983.753 534.003, 1005.157 508.710, 1021.515 489.243 L 1023.530 486.845 1052.973 521.673 C 1069.166 540.828, 1089.955 565.365, 1099.170 576.200 C 1108.385 587.035, 1132.454 615.385, 1152.657 639.200 C 1201.956 697.312, 1215.394 712.939, 1215.755 712.578 C 1215.922 712.411, 1214.454 706.475, 1212.491 699.387 C 1210.529 692.299, 1206.247 676.825, 1202.975 665 C 1199.704 653.175, 1195.508 638.100, 1193.652 631.500 C 1191.796 624.900, 1190.417 619.336, 1190.588 619.135 C 1190.758 618.934, 1197.159 623.740, 1204.813 629.816 C 1222.680 644, 1230.799 649.252, 1249.376 658.642 C 1269.527 668.827, 1272.063 670.691, 1278.163 679.801 C 1301.462 714.594, 1329.430 754.017, 1331.297 754.698 C 1332.509 755.139, 1344.242 755.397, 1357.370 755.271 L 1381.240 755.041 1393.870 763.861 C 1400.817 768.712, 1420 781.826, 1436.500 793.003 C 1453 804.181, 1475.170 819.665, 1485.766 827.413 C 1507.214 843.095, 1511.516 845.839, 1534.500 858.488 C 1556.784 870.752, 1576.407 882.718, 1588.890 891.654 C 1602.672 901.521, 1625.943 919.472, 1633.316 925.924 C 1636.506 928.716, 1639.300 931, 1639.523 931 C 1640.011 931, 1628.106 919.603, 1607 899.866 C 1598.475 891.893, 1583.832 878.200, 1574.461 869.435 C 1565.089 860.671, 1541.254 838.425, 1521.493 820 C 1482.687 783.817, 1388.194 695.545, 1355 664.468 C 1326.666 637.940, 1324.519 636.194, 1318.011 634.385 C 1305.391 630.877, 1299.628 628.613, 1294.512 625.155 C 1288.410 621.031, 1271.259 606.543, 1250.501 587.978 C 1235.613 574.663, 1138.878 489.049, 1080.549 437.563 C 1061.272 420.548, 1040.809 402.436, 1035.075 397.313 C 1029.342 392.191, 1024.390 388, 1024.072 388 C 1023.754 388, 1020.096 391.038, 1015.943 394.750 M 1371.468 470 C 1371.468 501.625, 1371.595 514.563, 1371.749 498.750 C 1371.904 482.937, 1371.904 457.062, 1371.749 441.250 C 1371.595 425.437, 1371.468 438.375, 1371.468 470 M 1608.247 573.076 L 1608 733.651 1610.750 736.076 L 1613.500 738.500 1611.253 735.939 L 1609.006 733.378 1608.750 572.939 L 1608.494 412.500 1608.247 573.076 M 1245.777 923.518 C 1241.086 928.590, 1237.970 934.304, 1238.033 937.718 C 1238.051 938.698, 1238.895 937.097, 1239.910 934.159 C 1241.125 930.640, 1243.395 927.152, 1246.567 923.932 C 1249.214 921.245, 1251.182 918.903, 1250.940 918.729 C 1250.698 918.555, 1248.375 920.710, 1245.777 923.518 M 1094.374 944.500 C 1094.376 950.550, 1094.541 952.896, 1094.740 949.713 C 1094.939 946.531, 1094.937 941.581, 1094.736 938.713 C 1094.535 935.846, 1094.372 938.450, 1094.374 944.500 M 1237.196 945.750 C 1237.088 949.188, 1236.638 952, 1236.196 952 C 1235.754 952, 1233.866 950.425, 1232 948.500 C 1230.111 946.551, 1227.698 945.051, 1226.554 945.116 C 1224.546 945.229, 1224.545 945.243, 1226.500 945.708 C 1227.600 945.970, 1230.403 948.028, 1232.729 950.280 C 1235.055 952.532, 1237.214 954.119, 1237.527 953.806 C 1237.841 953.493, 1237.938 950.146, 1237.744 946.368 L 1237.392 939.500 1237.196 945.750 M 1143.200 945.200 C 1139.632 948.768, 1145.044 952.584, 1156.510 954.586 C 1161.228 955.409, 1166.222 956.514, 1167.609 957.041 C 1168.996 957.569, 1170.663 957.968, 1171.315 957.930 C 1173.940 957.773, 1164.264 954.939, 1156.448 953.575 C 1145.186 951.609, 1140.794 948.606, 1144.200 945.200 C 1144.860 944.540, 1145.175 944, 1144.900 944 C 1144.625 944, 1143.860 944.540, 1143.200 945.200 M 1687.249 1332.249 L 1687 1690.999 1023.750 1691.250 L 360.500 1691.502 1023.781 1691.751 C 1553.670 1691.950, 1687.158 1691.749, 1687.537 1690.750 C 1687.798 1690.063, 1687.896 1528.400, 1687.755 1331.500 L 1687.497 973.500 1687.249 1332.249 M 360.385 994 C 360.385 1000.875, 360.545 1003.688, 360.740 1000.250 C 360.936 996.813, 360.936 991.188, 360.740 987.750 C 360.545 984.313, 360.385 987.125, 360.385 994 M 254.460 1072.250 C 254.198 1072.938, 254.102 1109.050, 254.248 1152.500 L 254.512 1231.500 254.756 1151.833 C 254.948 1089.220, 255.268 1072.059, 256.250 1071.662 C 257.229 1071.267, 257.222 1071.141, 256.219 1071.079 C 255.514 1071.036, 254.723 1071.563, 254.460 1072.250 M 1793 1429.300 L 1793.500 1787.500 1793.751 1430.051 C 1793.890 1233.455, 1793.665 1072.265, 1793.251 1071.851 C 1792.838 1071.438, 1792.725 1232.290, 1793 1429.300 M 939.338 1101.696 C 939.694 1103.887, 941.059 1106.433, 942.691 1107.946 L 945.444 1110.500 943.179 1107.890 C 941.934 1106.455, 940.822 1103.980, 940.707 1102.390 C 940.513 1099.679, 940.778 1099.463, 945 1098.900 L 949.500 1098.300 944.119 1098.150 L 938.738 1098 939.338 1101.696 M 1618 1098.941 L 1627.500 1099.500 1628.082 1105.500 L 1628.664 1111.500 1628.832 1105.950 C 1628.929 1102.746, 1628.493 1099.893, 1627.800 1099.200 C 1627.012 1098.412, 1623.491 1098.066, 1617.550 1098.191 L 1608.500 1098.383 1618 1098.941 M 956.060 1156.283 C 956.027 1156.714, 957.157 1159.349, 958.570 1162.139 L 961.141 1167.211 956.070 1175.479 C 953.282 1180.027, 951 1184.098, 951 1184.526 C 951 1184.955, 953.515 1181.299, 956.590 1176.403 L 962.180 1167.500 959.150 1161.500 C 957.483 1158.200, 956.093 1155.852, 956.060 1156.283 M 974.621 1158.500 C 977.389 1166.963, 977.392 1167.465, 974.713 1173.316 C 973.282 1176.442, 972.331 1179, 972.601 1179 C 973.493 1179, 977.981 1168.539, 977.964 1166.500 C 977.955 1165.400, 977.052 1162.700, 975.957 1160.500 C 974.863 1158.300, 974.261 1157.400, 974.621 1158.500 M 1557 1208.522 C 1557 1209.360, 1554.704 1212.235, 1551.897 1214.912 L 1546.794 1219.779 1552.535 1221.927 C 1555.692 1223.108, 1558.729 1223.924, 1559.283 1223.739 C 1559.837 1223.554, 1558.312 1222.816, 1555.895 1222.098 C 1548.989 1220.048, 1548.836 1219.529, 1553.661 1214.493 C 1557.372 1210.620, 1559.227 1207, 1557.500 1207 C 1557.225 1207, 1557 1207.685, 1557 1208.522 M 449.768 1221.498 C 452.150 1222.534, 453.591 1224.212, 455.081 1227.689 C 457.315 1232.900, 458.468 1234.013, 461.500 1233.885 C 463.089 1233.818, 462.986 1233.663, 461 1233.130 C 459.350 1232.687, 457.775 1230.954, 456.367 1228.033 C 454.042 1223.210, 450.715 1219.978, 448.139 1220.039 C 447.238 1220.061, 447.971 1220.717, 449.768 1221.498 M 911.420 1223.145 C 910.276 1223.700, 908.623 1225.369, 907.745 1226.854 C 904.873 1231.717, 902.079 1233.462, 896.149 1234.099 L 890.500 1234.706 895.962 1234.853 C 901.354 1234.998, 901.487 1234.931, 906.499 1229.547 C 909.290 1226.547, 912.682 1223.651, 914.037 1223.110 C 915.392 1222.569, 915.825 1222.129, 915 1222.131 C 914.175 1222.133, 912.564 1222.589, 911.420 1223.145 M 921.695 1223.499 C 922.873 1224.324, 924.814 1226.581, 926.010 1228.516 C 927.856 1231.504, 928.019 1232.506, 927.092 1235.166 C 925.768 1238.963, 925.701 1243.979, 926.947 1245.948 C 927.546 1246.895, 927.673 1245.984, 927.315 1243.315 C 927.014 1241.070, 927.309 1237.593, 927.971 1235.589 C 929.091 1232.194, 928.956 1231.606, 925.982 1226.973 C 924.227 1224.238, 922.063 1222, 921.173 1222 C 919.914 1222, 920.030 1222.333, 921.695 1223.499 M 968.607 1241.582 C 968.273 1242.452, 968 1246.727, 968 1251.082 C 968 1259.231, 967.591 1259.922, 963.934 1257.965 C 962.870 1257.395, 962 1257.159, 962 1257.439 C 962 1257.719, 963.358 1258.651, 965.018 1259.509 C 967.395 1260.738, 968.127 1260.797, 968.465 1259.785 C 968.854 1258.619, 969.694 1239.998, 969.357 1239.999 C 969.278 1240, 968.941 1240.712, 968.607 1241.582 M 1586.057 1250.893 C 1587.975 1254.826, 1586.743 1263.337, 1583.674 1267.361 C 1582.203 1269.289, 1581.039 1271.909, 1581.086 1273.183 C 1581.167 1275.380, 1581.213 1275.364, 1581.967 1272.870 C 1582.405 1271.423, 1583.800 1268.837, 1585.067 1267.123 C 1588.095 1263.028, 1588.934 1253.450, 1586.524 1250.500 C 1584.939 1248.561, 1584.925 1248.573, 1586.057 1250.893 M 1567.381 1253.215 C 1569.584 1256.909, 1569.429 1258.337, 1566.438 1261.892 C 1564.432 1264.275, 1563.961 1265.759, 1564.270 1268.718 L 1564.664 1272.500 1564.832 1268.644 C 1564.940 1266.174, 1565.898 1263.721, 1567.500 1261.818 C 1570.531 1258.215, 1570.610 1256.280, 1567.859 1253 L 1565.763 1250.500 1567.381 1253.215 M 254.409 1280.500 C 254.408 1289.850, 254.558 1293.810, 254.743 1289.299 C 254.928 1284.789, 254.929 1277.139, 254.745 1272.299 C 254.562 1267.460, 254.410 1271.150, 254.409 1280.500 M 409.116 1281.606 C 409.052 1282.765, 407.484 1285.697, 405.632 1288.124 C 402.302 1292.485, 395.507 1305, 396.469 1305 C 396.742 1305, 398.163 1302.638, 399.626 1299.750 C 401.089 1296.862, 404.066 1291.974, 406.243 1288.888 C 408.676 1285.436, 410.013 1282.549, 409.716 1281.388 C 409.284 1279.703, 409.220 1279.726, 409.116 1281.606 M 494.750 1299.740 C 498.188 1299.936, 501 1300.475, 501 1300.939 C 501 1301.402, 500.110 1303.743, 499.022 1306.141 C 497.809 1308.814, 497.088 1312.433, 497.159 1315.500 L 497.274 1320.500 497.974 1314.500 C 498.359 1311.200, 499.647 1306.605, 500.837 1304.290 C 502.027 1301.974, 503 1299.837, 503 1299.540 C 503 1299.243, 499.738 1299.087, 495.750 1299.193 L 488.500 1299.385 494.750 1299.740 M 1547.750 1304.689 C 1545.335 1305.320, 1545.536 1306.839, 1548.999 1314.160 C 1550.649 1317.647, 1551.999 1319.923, 1551.999 1319.217 C 1552 1318.511, 1550.875 1315.713, 1549.500 1313 C 1548.125 1310.287, 1547 1307.614, 1547 1307.062 C 1547 1306.509, 1548.463 1305.635, 1550.250 1305.119 C 1553.452 1304.194, 1551.154 1303.800, 1547.750 1304.689 M 454.302 1338.746 C 459.693 1338.926, 468.243 1338.925, 473.302 1338.744 C 478.361 1338.563, 473.950 1338.416, 463.500 1338.417 C 453.050 1338.418, 448.911 1338.566, 454.302 1338.746 M 539.789 1338.741 C 543.248 1338.937, 548.648 1338.936, 551.789 1338.738 C 554.930 1338.540, 552.100 1338.380, 545.500 1338.382 C 538.900 1338.384, 536.330 1338.546, 539.789 1338.741 M 610.250 1338.743 C 614.513 1338.931, 621.487 1338.931, 625.750 1338.743 C 630.013 1338.556, 626.525 1338.402, 618 1338.402 C 609.475 1338.402, 605.987 1338.556, 610.250 1338.743 M 924.250 1338.748 C 931.813 1338.917, 944.188 1338.917, 951.750 1338.748 C 959.313 1338.578, 953.125 1338.439, 938 1338.439 C 922.875 1338.439, 916.688 1338.578, 924.250 1338.748 M 1131.789 1338.741 C 1135.248 1338.937, 1140.648 1338.936, 1143.789 1338.738 C 1146.930 1338.540, 1144.100 1338.380, 1137.500 1338.382 C 1130.900 1338.384, 1128.330 1338.546, 1131.789 1338.741 M 1518.607 1417.582 C 1518.273 1418.452, 1518.032 1419.689, 1518.070 1420.332 C 1518.109 1420.974, 1518.490 1420.600, 1518.917 1419.500 C 1519.581 1417.790, 1520.911 1417.418, 1528.097 1416.936 L 1536.500 1416.373 1527.857 1416.186 C 1520.783 1416.034, 1519.104 1416.287, 1518.607 1417.582 M 453 1428.572 C 453 1428.854, 456.023 1430.440, 459.719 1432.098 C 463.848 1433.951, 468.637 1437.211, 472.144 1440.556 C 475.283 1443.550, 478.136 1446, 478.483 1446 C 478.830 1446, 476.350 1443.412, 472.971 1440.250 C 469.296 1436.809, 464.052 1433.207, 459.914 1431.280 C 456.111 1429.510, 453 1428.291, 453 1428.572 M 1475.667 1462.667 C 1475.300 1463.033, 1475.093 1467.646, 1475.206 1472.917 L 1475.411 1482.500 1475.747 1473.552 C 1475.932 1468.631, 1476.570 1464.018, 1477.164 1463.302 C 1478.259 1461.983, 1476.919 1461.414, 1475.667 1462.667" stroke="none" fill="#c7c7c9" fill-rule="evenodd"/><path d="M 1014.500 256.165 C 994.308 258.331, 981.537 264.783, 958.931 284.239 C 922.216 315.840, 863.050 366.814, 839 387.567 C 824.975 399.669, 803.600 418.086, 791.500 428.494 C 779.400 438.902, 769.275 447.694, 769 448.031 C 768.725 448.369, 754.100 460.991, 736.500 476.081 C 718.900 491.171, 698.425 508.763, 691 515.176 C 683.575 521.588, 661.075 540.452, 641 557.097 C 620.925 573.742, 598.425 592.806, 591 599.462 C 583.575 606.118, 571.875 616.493, 565 622.517 C 532.688 650.829, 478.684 699.105, 451.475 724 C 434.944 739.125, 410.187 761.620, 396.460 773.988 C 382.732 786.357, 367.675 800.109, 363 804.548 C 348.759 818.071, 303.980 859.303, 255 903.994 C 229.425 927.330, 200.175 954.113, 190 963.513 C 179.825 972.913, 160.250 990.855, 146.500 1003.384 C 132.750 1015.913, 119.334 1028.490, 116.687 1031.332 C 106.532 1042.237, 101.466 1058.350, 103.822 1072.250 C 109.802 1107.541, 147.954 1125.864, 178.500 1108.116 C 181.250 1106.518, 196.100 1093.601, 211.500 1079.412 C 247.272 1046.453, 306.296 991.465, 329.500 969.482 C 339.400 960.102, 367.750 933.557, 392.500 910.492 C 417.250 887.427, 450.550 856.383, 466.500 841.506 C 482.450 826.629, 514.625 796.681, 538 774.956 C 561.375 753.231, 605.878 711.840, 636.896 682.978 C 667.913 654.115, 696.713 627.414, 700.896 623.642 C 709.026 616.309, 716.789 611.815, 724.636 609.898 C 731.987 608.103, 741.771 603.425, 746.908 599.250 C 759.231 589.235, 916.564 450.209, 1013.360 363.801 C 1018.782 358.961, 1023.531 355, 1023.912 355 C 1024.293 355, 1029.556 359.387, 1035.608 364.750 C 1041.660 370.113, 1053.753 380.800, 1062.481 388.500 C 1071.209 396.200, 1094.584 416.863, 1114.425 434.417 C 1134.266 451.971, 1157.475 472.499, 1166 480.034 C 1174.525 487.569, 1197.941 508.306, 1218.035 526.117 C 1286.046 586.400, 1301.846 600.053, 1307.614 603.527 C 1310.778 605.432, 1317.219 608.166, 1321.927 609.602 C 1333.657 613.180, 1338.852 616.006, 1346.209 622.811 C 1349.669 626.011, 1372.975 647.733, 1398 671.081 C 1423.025 694.429, 1474.995 742.775, 1513.489 778.516 C 1551.982 814.257, 1586.407 846.221, 1589.989 849.547 C 1636.932 893.139, 1680.971 934.214, 1701.980 954 C 1711.616 963.075, 1741.310 990.750, 1767.967 1015.500 C 1794.623 1040.250, 1826.876 1070.242, 1839.639 1082.149 C 1864.453 1105.297, 1868.759 1108.735, 1877.136 1112.084 C 1883.820 1114.755, 1897.303 1115.704, 1905.219 1114.059 C 1918.259 1111.350, 1933.467 1099.905, 1939.286 1088.422 C 1946.967 1073.264, 1946.771 1055.795, 1938.749 1040.698 C 1935.124 1033.876, 1932.141 1031.021, 1856.500 961.971 C 1827.350 935.361, 1798.325 908.792, 1792 902.928 C 1785.675 897.064, 1757.571 871.169, 1729.547 845.383 C 1701.523 819.597, 1670.058 790.625, 1659.625 781 C 1649.191 771.375, 1633.420 756.845, 1624.578 748.710 L 1608.500 733.920 1608 571.210 L 1607.500 408.500 1604.828 403.437 C 1601.634 397.385, 1595.461 391.568, 1589.122 388.637 C 1584.504 386.502, 1584.415 386.500, 1490 386.500 C 1395.585 386.500, 1395.496 386.502, 1390.878 388.637 C 1384.539 391.568, 1378.366 397.385, 1375.172 403.437 L 1372.500 408.500 1372 467.835 L 1371.500 527.170 1328.968 490.835 C 1305.576 470.851, 1279.926 448.857, 1271.968 441.960 C 1257.583 429.492, 1220.561 397.446, 1157.500 342.876 C 1067.212 264.745, 1069.453 266.524, 1054.592 261.147 C 1041.365 256.361, 1028.073 254.709, 1014.500 256.165 M 356.428 978.791 C 352.841 982.059, 325.483 1007.590, 277.486 1052.463 C 269.229 1060.184, 260.791 1067.949, 258.736 1069.719 L 255 1072.939 255 1432.469 L 255 1792 1021.750 1791.986 C 1443.463 1791.979, 1789.513 1791.701, 1790.750 1791.370 L 1793 1790.767 1792.925 1431.633 L 1792.850 1072.500 1777.143 1058 C 1768.504 1050.025, 1744.913 1028.076, 1724.719 1009.224 L 1688.003 974.948 1687.751 1333.224 L 1687.500 1691.500 1024.250 1691.751 L 361 1692.001 361.026 1450.251 C 361.040 1317.288, 360.928 1155.963, 360.776 1091.750 C 360.624 1027.538, 360.500 975.019, 360.500 975.041 C 360.500 975.064, 358.668 976.751, 356.428 978.791" stroke="none" fill="#243a63" fill-rule="evenodd"/></svg>