<?xml version="1.0" encoding="utf-8"?>
<svg class="img-fluid" id="outputsvg" xmlns="http://www.w3.org/2000/svg" style="transform: matrix(1.01591, 0, 0, 1.01591, 0, 0); transform-origin: 50% 50%; cursor: move; max-height: none; transition: transform 200ms ease-in-out;" width="808" height="270" viewBox="0 0 8080 2700">
  <!-- Made logo background transparent to blend nicely with custom header colors -->
  <g id="l3ZILQgSdea8vQGoLqym8L7" fill="rgb(255,255,255)" style="transform: none;">
    <g style="transform: none;"/>
  </g>
  <path style="stroke: rgb(0, 0, 0); fill: rgb(255, 252, 252);" d="M 844.237 1164.37 C 1077.26 1164.37 1312.11 1172.72 1543.79 1172.72 C 1556.93 1172.72 1761.36 1165.2 1762.5 1168.62 C 1784.22 1234.23 1757.29 1340.56 1757.29 1409.59 C 1757.29 1663.25 1705.25 2203.31 1375.38 2248.07 C 1325.36 2254.84 1241.91 2282.14 1192.76 2261.22 C 986.822 2173.51 909.87 1724.84 893.196 1526.79 C 882.01 1393.91 808.315 1258.87 895.002 1159.18"/>
  <g id="l5SRigTXlv1Ls7Fe0R5aWEJ" fill="rgb(58,72,79)" style="" transform="matrix(1, 0, 0, 1, 0, -48)">
    <g style="transform: none;">
      <path id="p13V5xHeZU" d="M 4238 2500.79 C 4191 2489.79 4130 2450.79 4104 2413.79 C 4058 2350.79 4055 2329.79 4055 2066.79 L 4055 1816.79 L 4125 1816.79 L 4195 1816.79 L 4200 2058.79 C 4205 2283.79 4206 2301.79 4226 2328.79 C 4269 2386.79 4374 2394.79 4432 2342.79 C 4473 2305.79 4479 2265.79 4480 2023.79 L 4480 1810.79 L 4548 1813.79 L 4615 1816.79 L 4615 2066.79 C 4615 2308.79 4614 2318.79 4592 2363.79 C 4534 2481.79 4391 2536.79 4238 2500.79 Z" style="fill: rgb(255, 255, 255);"/>
      <path id="p1D3Sjtukc" d="M 5873 2501.47 C 5813 2481.47 5755 2432.47 5728 2377.47 C 5706 2332.47 5705 2322.47 5705 2075.47 L 5705 1820.47 L 5775 1820.47 L 5845 1820.47 L 5850 2060.47 C 5855 2306.47 5858 2322.47 5899 2359.47 C 5928 2385.47 6024 2387.47 6062 2362.47 C 6115 2326.47 6120 2298.47 6120 2046.47 L 6120 1814.47 L 6193 1817.47 L 6265 1820.47 L 6265 2065.47 C 6265 2301.47 6264 2312.47 6241 2363.47 C 6215 2420.47 6166 2469.47 6111 2492.47 C 6061 2513.47 5925 2518.47 5873 2501.47 Z" style="fill: rgb(255, 255, 255);"/>
      <path id="pIjxsMy3B" d="M 7462 2501 C 7351 2473 7246 2370 7219 2262 C 7202 2194 7212 2071 7239 2009 C 7266 1946 7337 1875 7410 1838 C 7460 1812 7474 1810 7575 1810 C 7674 1810 7691 1813 7743 1837 C 7774 1852 7800 1867 7800 1870 C 7800 1874 7790 1899 7779 1926 C 7762 1964 7753 1974 7741 1969 C 7611 1915 7497 1925 7424 1999 C 7321 2101 7346 2296 7471 2360 C 7512 2382 7601 2389 7644 2375 L 7680 2363 L 7680 2300 L 7680 2236 L 7623 2233 L 7565 2230 L 7565 2175 L 7565 2120 L 7690 2120 L 7815 2120 L 7815 2289 L 7815 2458 L 7750 2482 C 7670 2512 7539 2521 7462 2501 Z" style="fill: rgb(255, 255, 255);"/>
      <path id="p11dngDmFZ" d="M 2630 2170.7 L 2630 1828.7 L 2794 1833.7 C 2948 1837.7 2961 1839.7 3014 1865.7 C 3107 1911.7 3149 2005.7 3121 2107.7 C 3111 2146.7 3056 2208.7 3006 2236.7 C 2991 2245.7 2998 2260.7 3074 2374.7 C 3121 2444.7 3160 2504.7 3160 2506.7 C 3160 2509.7 3125 2511.7 3081 2511.7 L 3003 2511.7 L 2948 2424.7 C 2918 2375.7 2883 2319.7 2871 2299.7 C 2852 2267.7 2843 2261.7 2814 2261.7 L 2780 2261.7 L 2780 2386.7 L 2780 2511.7 L 2705 2511.7 L 2630 2511.7 L 2630 2170.7 Z M 2945 2125.7 C 2977 2104.7 2997 2042.7 2981 2012.7 C 2962 1977.7 2925 1960.7 2851 1954.7 L 2780 1948.7 L 2780 2049.7 L 2780 2151.7 L 2850 2146.7 C 2891 2143.7 2931 2134.7 2945 2125.7 Z" style="fill: rgb(255, 255, 255);"/>
      <path id="pqABixon7" d="M 3290 2506.7 C 3290 2500.7 3426 2141.7 3507 1934.7 L 3543 1841.7 L 3615 1841.7 C 3661 1841.7 3691 1846.7 3698 1854.7 C 3708 1866.7 3838 2204.7 3911 2404.7 L 3950 2511.7 L 3871 2511.7 L 3793 2511.7 L 3769 2439.7 L 3745 2366.7 L 3618 2363.7 L 3492 2360.7 L 3468 2433.7 L 3443 2506.7 L 3367 2509.7 C 3325 2511.7 3290 2509.7 3290 2506.7 Z M 3700 2236.7 C 3700 2225.7 3657 2096.7 3624 2011.7 C 3621 2003.7 3600 2048.7 3576 2116.7 C 3552 2182.7 3535 2239.7 3537 2244.7 C 3539 2248.7 3577 2251.7 3621 2251.7 C 3683 2251.7 3700 2248.7 3700 2236.7 Z" style="fill: rgb(255, 255, 255);"/>
      <path id="p2wsoUhoe" d="M 4797 2364.7 C 4799 2282.7 4805 2133.7 4808 2031.7 L 4815 1846.7 L 4906 1843.7 L 4996 1840.7 L 5022 1903.7 C 5036 1938.7 5071 2023.7 5100 2094.7 C 5129 2164.7 5156 2221.7 5160 2221.7 C 5167 2221.7 5184 2183.7 5275 1959.7 L 5323 1841.7 L 5415 1841.7 L 5507 1841.7 L 5514 2059.7 C 5517 2178.7 5523 2329.7 5527 2394.7 L 5533 2511.7 L 5462 2511.7 L 5390 2511.7 L 5389 2429.7 C 5388 2383.7 5385 2276.7 5381 2191.7 L 5375 2036.7 L 5347 2096.7 C 5331 2129.7 5296 2211.7 5267 2279.7 L 5216 2401.7 L 5159 2401.7 L 5102 2401.7 L 5029 2229.7 C 4989 2134.7 4953 2052.7 4949 2048.7 C 4946 2043.7 4939 2146.7 4935 2275.7 L 4928 2511.7 L 4860 2511.7 L 4792 2511.7 L 4797 2364.7 Z" style="fill: rgb(255, 255, 255);"/>
      <path id="p188Sh0Auk" d="M 6450 2171.7 L 6450 1831.7 L 6515 1831.7 C 6565 1831.7 6584 1835.7 6594 1849.7 C 6615 1874.7 6743 2048.7 6830 2171.7 L 6905 2275.7 L 6910 2056.7 L 6915 1836.7 L 6980 1836.7 L 7045 1836.7 L 7048 2174.7 L 7050 2511.7 L 6983 2511.7 L 6915 2511.7 L 6765 2305.7 C 6683 2192.7 6610 2092.7 6603 2083.7 C 6593 2069.7 6591 2111.7 6590 2289.7 L 6590 2511.7 L 6520 2511.7 L 6450 2511.7 L 6450 2171.7 Z" style="fill: rgb(255, 255, 255);"/>
      <path id="pLDPPZr3D" d="M3460 1814 c-8 -8 -13 -28 -13 -44 0 -41 19 -60 63 -60 62 0 95 65 52 103 -23 21 -85 22 -102 1z" style="fill: rgb(255, 255, 255);"/>
      <path id="poUPb4yyz" d="M3671 1811 c-25 -25 -27 -49 -5 -79 13 -19 24 -22 57 -20 33 2 44 9 57 31 13 24 13 30 0 55 -21 36 -79 43 -109 13z" style="fill: rgb(255, 255, 255);"/>
      <path id="pZNlOxHZR" d="M3676 1629 c-118 -17 -206 -83 -247 -185 -23 -57 -23 -68 -24 -364 l0 -305 90 0 90 0 5 297 c5 280 6 298 26 324 54 72 138 93 219 54 79 -38 80 -42 83 -382 l3 -298 90 0 89 0 0 298 c0 320 -5 362 -53 432 -66 99 -214 150 -371 129z" style="fill: rgb(255, 255, 255);"/>
      <path id="p14WOs07gX" d="M2630 1189 l0 -421 198 5 c232 5 271 15 342 86 104 104 91 291 -25 371 -24 17 -48 30 -54 30 -28 0 -13 32 84 180 58 89 105 163 105 166 0 2 -46 4 -103 4 l-102 0 -90 -155 -90 -155 -37 0 -38 0 0 155 0 155 -95 0 -95 0 0 -421z m371 -52 c48 -32 67 -89 46 -139 -24 -57 -56 -72 -151 -73 l-81 0 -3 118 -3 117 79 0 c66 0 85 -4 113 -23z" style="fill: rgb(255, 255, 255);"/>
      <path id="p127ECLpVN" d="M4301 1298 c1 -172 5 -360 8 -417 l6 -104 105 2 c79 1 108 5 116 17 6 8 51 107 99 220 69 162 90 202 98 189 5 -10 45 -105 88 -213 43 -108 82 -199 86 -203 5 -4 58 -9 118 -10 l110 -2 6 94 c4 52 7 239 8 417 l1 322 -85 0 -85 0 0 -297 c0 -169 -4 -293 -9 -287 -8 9 -38 75 -134 302 l-52 122 -64 -2 -63 -3 -92 -213 -91 -212 -3 295 -2 295 -86 0 -85 0 2 -312z" style="fill: rgb(255, 255, 255);"/>
      <path id="pkDNTHD6u" d="M5356 1601 c-3 -4 -4 -192 -3 -417 l2 -409 190 0 c217 1 269 12 337 73 63 57 82 103 82 197 0 91 -14 127 -72 188 -51 53 -125 78 -249 84 l-103 6 0 143 0 144 -89 0 c-50 0 -92 -4 -95 -9z m375 -454 c39 -26 62 -81 53 -127 -14 -66 -77 -100 -186 -100 l-57 0 -3 121 c-2 66 -1 123 1 125 2 2 39 4 81 4 64 0 83 -4 111 -23z" style="fill: rgb(255, 255, 255);"/>
      <path id="pxVQd52tC" d="M6120 1190 l0 -420 255 0 255 0 0 80 0 80 -165 0 -165 0 0 90 0 90 145 0 145 0 0 75 0 75 -145 0 -145 0 0 100 0 100 170 0 170 0 0 75 0 75 -260 0 -260 0 0 -420z" style="fill: rgb(255, 255, 255);"/>
      <path id="phdiwBIoH" d="M6810 1190 l0 -421 93 3 92 3 2 340 2 340 160 3 161 2 0 75 0 75 -255 0 -255 0 0 -420z" style="fill: rgb(255, 255, 255);"/>
      <path id="pz4oJpbCm" d="M3583 720 c-47 -19 -59 -101 -20 -138 34 -32 100 -30 132 3 69 68 -17 173 -112 135z" style="fill: rgb(255, 255, 255);"/>
      <path id="p2Fjo7RXl" d="M3844 718 c-47 -22 -57 -95 -19 -133 31 -32 91 -34 129 -4 20 16 26 29 26 60 0 72 -68 110 -136 77z" style="fill: rgb(255, 255, 255);"/>
    </g>
  </g>
  <g id="l35ehMLNWigZnIDYJHWO940" fill="rgb(41,73,64)" style="transform: none;">
    <g style="transform: none;">
      <path id="p1DXflHWxm" d="M1218 2267 c-155 -65 -306 -257 -360 -454 -18 -68 -21 -114 -25 -359 -5 -277 -5 -282 16 -303 21 -21 27 -21 459 -21 388 0 440 2 461 16 l23 17 -5 291 c-5 330 -8 351 -85 506 -38 78 -61 110 -132 181 -136 137 -238 174 -352 126z m127 -61 c27 -12 35 -21 35 -40 0 -18 9 -30 29 -40 44 -23 154 -148 190 -216 33 -62 71 -177 71 -216 0 -13 8 -24 20 -27 17 -4 20 -14 20 -71 0 -52 -3 -66 -15 -66 -13 0 -15 -23 -15 -145 l0 -145 -150 0 c-127 0 -150 -2 -150 -15 0 -12 -14 -15 -70 -15 -56 0 -70 3 -70 15 0 13 -23 15 -150 15 l-150 0 0 145 c0 122 -2 145 -15 145 -12 0 -15 14 -15 65 0 58 2 65 20 65 15 0 20 7 20 28 1 125 115 329 237 423 39 31 53 48 51 63 -2 16 5 24 32 33 19 6 36 12 38 12 1 1 18 -6 37 -13z" style="fill: rgb(255, 255, 255);"/>
      <path id="pHEDtGQGJ" d="M519 2461 c-46 -15 -69 -31 -86 -64 -17 -29 -18 -77 -18 -602 0 -465 3 -576 14 -603 8 -20 60 -74 130 -135 645 -568 692 -608 726 -614 69 -11 42 -31 600 461 50 44 136 119 192 168 55 49 108 104 117 122 14 30 16 103 16 598 0 530 -1 565 -19 598 -10 19 -34 44 -52 55 -33 19 -54 20 -814 22 -429 1 -792 -2 -806 -6z m881 -96 c24 -8 66 -32 94 -53 l51 -37 235 -5 235 -5 3 -497 2 -496 -192 -169 c-105 -92 -215 -188 -244 -213 -29 -25 -100 -87 -158 -138 -58 -50 -111 -92 -118 -92 -7 1 -27 13 -44 28 -17 15 -173 152 -348 305 l-316 279 2 496 3 497 230 5 230 5 65 41 c36 22 79 46 95 52 44 15 126 14 175 -3z" style="fill: rgb(255, 255, 255);"/>
    </g>
  </g>
  <g id="l3yQv4CaMVIxAC3mhnA4q81" fill="rgb(204,61,52)" style="transform: none;">
    <g style="transform: none;">
      <path id="peCqtk1c8" d="M1164 2146 c-134 -100 -222 -261 -248 -449 l-5 -37 162 2 162 3 3 254 c1 140 -2 259 -6 263 -5 5 -35 -11 -68 -36z"/>
      <path id="p19aQLeIye" d="M1380 1925 l0 -266 166 2 165 2 -6 41 c-13 81 -39 162 -73 229 -40 78 -151 201 -211 235 l-41 23 0 -266z"/>
      <path id="prU7KQRiN" d="M910 1370 l0 -160 165 0 165 0 0 160 0 160 -165 0 -165 0 0 -160z"/>
      <path id="pK5uC9EkO" d="M1380 1370 l0 -160 165 0 165 0 0 160 0 160 -165 0 -165 0 0 -160z"/>
    </g>
  </g>
</svg>